<svg width="505" height="461" viewBox="0 0 505 461" fill="none" xmlns="http://www.w3.org/2000/svg">
<path d="M458.139 79.3893C461.416 81.1691 463.417 84.6374 463.317 88.365C461.572 146.51 434.872 204.994 382.206 242.554C378.728 245.038 374.056 245.038 370.578 242.554C317.839 204.943 291.138 146.35 289.46 88.1267C289.362 84.5124 291.242 81.1321 294.363 79.3079C316.497 66.339 342.252 53.2466 370.002 38.4047C373.994 36.2665 378.793 36.2779 382.775 38.4352C398.215 46.8081 437.802 68.2839 458.139 79.3893Z" fill="white" stroke="black" stroke-width="1.90137" stroke-linecap="round" stroke-linejoin="round"/>
<path d="M458.139 83.2453C461.416 85.0251 463.417 88.4934 463.317 92.221C461.572 150.366 434.872 208.85 382.206 246.41C378.728 248.894 374.056 248.894 370.578 246.41C317.839 208.799 291.138 150.206 289.46 91.9827C289.362 88.3684 291.242 84.9881 294.363 83.1638C316.497 70.195 342.252 57.1025 370.002 42.2607C373.994 40.1224 378.793 40.1339 382.775 42.2911C398.215 50.664 437.802 72.1399 458.139 83.2453Z" fill="#E43334"/>
<mask id="mask0_208_4744" style="mask-type:alpha" maskUnits="userSpaceOnUse" x="289" y="40" width="175" height="209">
<path fill-rule="evenodd" clip-rule="evenodd" d="M458.138 83.2453C461.415 85.0251 463.416 88.4934 463.316 92.221C461.571 150.366 434.871 208.85 382.205 246.41C378.727 248.894 374.055 248.894 370.577 246.41C317.838 208.799 291.137 150.206 289.459 91.9827C289.361 88.3684 291.241 84.9881 294.362 83.1638C316.496 70.195 342.251 57.1025 370.001 42.2607C373.993 40.1224 378.792 40.1339 382.774 42.2911C398.214 50.664 437.801 72.1399 458.138 83.2453Z" fill="white"/>
</mask>
<g mask="url(#mask0_208_4744)">
<path d="M396.449 45.8529C383.471 46.476 457.44 81.8079 463.315 92.221C469.19 102.634 459.71 70.9957 459.71 70.9957L416.652 50.0353" fill="url(#paint0_linear_208_4744)"/>
</g>
<path fill-rule="evenodd" clip-rule="evenodd" d="M458.139 83.2453C461.416 85.0251 463.417 88.4934 463.317 92.221C461.572 150.366 434.872 208.85 382.206 246.41C378.728 248.894 374.056 248.894 370.578 246.41C317.839 208.799 291.138 150.206 289.46 91.9827C289.362 88.3684 291.242 84.9881 294.363 83.1638C316.497 70.195 342.252 57.1025 370.002 42.2607C373.994 40.1224 378.793 40.1339 382.775 42.2911C398.215 50.664 437.802 72.1399 458.139 83.2453Z" stroke="black" stroke-width="1.90137" stroke-linecap="round" stroke-linejoin="round"/>
<path d="M458.139 83.2453C461.416 85.0251 463.417 88.4934 463.317 92.221C461.572 150.366 434.872 208.85 382.206 246.41C378.728 248.894 374.056 248.894 370.578 246.41C317.839 208.799 291.138 150.206 289.46 91.9827C289.362 88.3684 291.242 84.9881 294.363 83.1638C316.497 70.195 342.252 57.1025 370.002 42.2607C373.994 40.1224 378.793 40.1339 382.775 42.2911C398.215 50.664 437.802 72.1399 458.139 83.2453Z" fill="#8194FB"/>
<mask id="mask1_208_4744" style="mask-type:alpha" maskUnits="userSpaceOnUse" x="289" y="40" width="175" height="209">
<path fill-rule="evenodd" clip-rule="evenodd" d="M458.138 83.2453C461.415 85.0251 463.416 88.4934 463.316 92.221C461.571 150.366 434.871 208.85 382.205 246.41C378.727 248.894 374.055 248.894 370.577 246.41C317.838 208.799 291.137 150.206 289.459 91.9827C289.361 88.3684 291.241 84.9881 294.362 83.1638C316.496 70.195 342.251 57.1025 370.001 42.2607C373.993 40.1224 378.792 40.1339 382.774 42.2911C398.214 50.664 437.801 72.1399 458.138 83.2453Z" fill="white"/>
</mask>
<g mask="url(#mask1_208_4744)">
<path d="M299.122 153.632C360.153 244.988 398.007 233.843 398.007 233.843C398.007 233.843 398.086 258.849 392.161 263.001C386.236 267.154 342.388 264.781 340.611 263.594C338.833 262.408 311.721 202.493 311.721 202.493L299.122 153.632Z" fill="#727CD7"/>
</g>
<path fill-rule="evenodd" clip-rule="evenodd" d="M458.139 83.2453C461.416 85.0251 463.417 88.4934 463.317 92.221C461.572 150.366 434.872 208.85 382.206 246.41C378.728 248.894 374.056 248.894 370.578 246.41C317.839 208.799 291.138 150.206 289.46 91.9827C289.362 88.3684 291.242 84.9881 294.363 83.1638C316.497 70.195 342.252 57.1025 370.002 42.2607C373.994 40.1224 378.793 40.1339 382.775 42.2911C398.215 50.664 437.802 72.1399 458.139 83.2453Z" stroke="black" stroke-width="1.90137" stroke-linecap="round" stroke-linejoin="round"/>
<path d="M437.2 99.7918C439.623 101.067 441.115 103.604 441.051 106.342C439.754 148.772 419.892 191.45 380.715 218.859C378.117 220.672 374.664 220.672 372.066 218.859C332.835 191.413 312.973 148.655 311.725 106.168C311.661 103.514 313.063 101.041 315.372 99.7324C331.837 90.2685 350.995 80.7145 371.637 69.8839C374.614 68.3235 378.169 68.3318 381.139 69.9061C392.624 76.0161 422.072 91.6878 437.2 99.7918Z" fill="white"/>
<mask id="mask2_208_4744" style="mask-type:alpha" maskUnits="userSpaceOnUse" x="311" y="68" width="131" height="153">
<path fill-rule="evenodd" clip-rule="evenodd" d="M437.199 99.7918C439.622 101.067 441.114 103.604 441.05 106.342C439.753 148.772 419.891 191.45 380.714 218.859C378.116 220.672 374.663 220.672 372.065 218.859C332.834 191.413 312.972 148.655 311.724 106.168C311.66 103.514 313.062 101.041 315.371 99.7324C331.836 90.2685 350.994 80.7145 371.636 69.8839C374.613 68.3235 378.168 68.3318 381.138 69.9061C392.623 76.0161 422.071 91.6878 437.199 99.7918Z" fill="white"/>
</mask>
<g mask="url(#mask2_208_4744)">
<path d="M374.78 63.0861C413.887 83.2555 447.464 108.566 433.244 155.628C419.023 202.69 455.365 107.775 455.365 107.775L443.119 95.1199" fill="white"/>
<path d="M374.78 63.0861C413.887 83.2555 447.464 108.566 433.244 155.628C419.023 202.69 455.365 107.775 455.365 107.775L443.119 95.1199" stroke="black" stroke-width="1.90137" stroke-linecap="round" stroke-linejoin="round"/>
<path d="M385.29 50.7496L376.387 64.1959C376.387 64.1959 382.327 98.9981 376.387 220.219C374.783 252.949 432.693 250.665 432.693 250.665L454.616 97.614L422.445 52.855" fill="#D6DCF2"/>
</g>
<path fill-rule="evenodd" clip-rule="evenodd" d="M437.2 99.7918C439.623 101.067 441.115 103.604 441.051 106.342C439.754 148.772 419.892 191.45 380.715 218.859C378.117 220.672 374.664 220.672 372.066 218.859C332.835 191.413 312.973 148.655 311.725 106.168C311.661 103.514 313.063 101.041 315.372 99.7324C331.837 90.2685 350.995 80.7145 371.637 69.8839C374.614 68.3235 378.169 68.3318 381.139 69.9061C392.624 76.0161 422.072 91.6878 437.2 99.7918Z" stroke="black" stroke-width="1.90137" stroke-linecap="round" stroke-linejoin="round"/>
<path d="M406.029 126.043H388.639V108.634C388.64 107.631 388.242 106.668 387.533 105.958C386.824 105.248 385.862 104.849 384.858 104.849H371.25C369.161 104.85 367.468 106.544 367.469 108.634V126.043H350.08C347.99 126.045 346.298 127.739 346.299 129.829V143.453C346.298 145.542 347.99 147.237 350.08 147.238H367.469V164.648C367.468 166.737 369.161 168.432 371.25 168.433H384.858C386.948 168.432 388.641 166.737 388.639 164.648V147.238H406.029C408.118 147.237 409.811 145.542 409.81 143.453V129.829C409.811 127.739 408.118 126.045 406.029 126.043Z" fill="#E43334" stroke="black" stroke-width="1.90137" stroke-linecap="round" stroke-linejoin="round"/>
<path d="M391.811 91.17C396.571 92.533 400.747 95.4323 403.687 99.4161" stroke="black" stroke-width="1.90137" stroke-linecap="round" stroke-linejoin="round"/>
<path d="M359.793 183.614L364.259 187.34" stroke="black" stroke-width="1.90137" stroke-linecap="round" stroke-linejoin="round"/>
<path d="M75.1982 110.656H99.9795V219.088C99.9795 225.931 94.432 231.479 87.5889 231.479C80.7458 231.479 75.1983 225.931 75.1983 219.088V110.656H75.1982Z" fill="white"/>
<mask id="mask3_208_4744" style="mask-type:alpha" maskUnits="userSpaceOnUse" x="75" y="110" width="25" height="122">
<path fill-rule="evenodd" clip-rule="evenodd" d="M75.1982 110.656H99.9795V219.088C99.9795 225.931 94.432 231.479 87.5889 231.479C80.7458 231.479 75.1983 225.931 75.1983 219.088V110.656H75.1982Z" fill="white"/>
</mask>
<g mask="url(#mask3_208_4744)">
<path d="M72.2215 141.914C74.0321 119.916 88.7804 114.558 94.8946 114.558C101.009 114.558 78.4527 112.607 78.4527 112.607L69.0088 114.558L69.8125 122.481" fill="#D6DCF2"/>
<path d="M102.958 184.574C99.9802 219.074 96.8604 231.513 87.5896 233.927C78.3188 236.341 107.253 234.464 107.253 234.464L104.842 195.84L102.958 184.574Z" fill="#D6DCF2"/>
</g>
<path fill-rule="evenodd" clip-rule="evenodd" d="M75.1982 110.656H99.9795V219.088C99.9795 225.931 94.432 231.479 87.5889 231.479V231.479C80.7458 231.479 75.1983 225.931 75.1983 219.088V110.656H75.1982Z" stroke="black" stroke-width="1.90137" stroke-linecap="round" stroke-linejoin="round"/>
<rect x="72.2197" y="110.656" width="30.736" height="3.90194" rx="1.42708" fill="white" stroke="black" stroke-width="1.90137" stroke-linecap="round" stroke-linejoin="round"/>
<path d="M87.3709 229.547H87.8044C90.7402 229.545 93.5551 228.377 95.6298 226.3C97.7045 224.223 98.8691 221.407 98.8673 218.471V153.487C87.9392 156.757 84.9477 145.086 76.3076 147.222V218.471C76.3059 221.407 77.4706 224.223 79.5454 226.3C81.6201 228.377 84.4351 229.545 87.3709 229.547Z" fill="#1AB995"/>
<mask id="mask4_208_4744" style="mask-type:alpha" maskUnits="userSpaceOnUse" x="76" y="146" width="23" height="84">
<path fill-rule="evenodd" clip-rule="evenodd" d="M87.3709 229.547H87.8044C90.7402 229.545 93.5551 228.377 95.6298 226.3C97.7045 224.223 98.8691 221.407 98.8673 218.471V153.487C87.9392 156.757 84.9477 145.086 76.3076 147.222V218.471C76.3059 221.407 77.4706 224.223 79.5454 226.3C81.6201 228.377 84.4351 229.545 87.3709 229.547Z" fill="white"/>
</mask>
<g mask="url(#mask4_208_4744)">
<path d="M72.2188 219.203C75.1962 207.993 75.0543 229.547 99.9774 229.547C124.901 229.547 97.5587 237.25 97.5587 237.25L68.1455 231.788" fill="#0FA379"/>
</g>
<path fill-rule="evenodd" clip-rule="evenodd" d="M87.3709 229.547H87.8044C90.7402 229.545 93.5551 228.377 95.6298 226.3C97.7045 224.223 98.8691 221.407 98.8673 218.471V153.487C87.9392 156.757 84.9477 145.086 76.3076 147.222V218.471C76.3059 221.407 77.4706 224.223 79.5454 226.3C81.6201 228.377 84.4351 229.545 87.3709 229.547V229.547Z" stroke="black" stroke-width="1.90137" stroke-linecap="round" stroke-linejoin="round"/>
<ellipse cx="82.6586" cy="173.847" rx="0.957459" ry="0.958563" fill="white" stroke="black" stroke-width="1.90137" stroke-linecap="round" stroke-linejoin="round"/>
<ellipse cx="93.5702" cy="173.167" rx="1.32312" ry="1.32467" fill="white" stroke="black" stroke-width="1.90137" stroke-linecap="round" stroke-linejoin="round"/>
<ellipse cx="87.5881" cy="212.486" rx="3.51001" ry="3.51407" fill="white" stroke="black" stroke-width="1.90137" stroke-linecap="round" stroke-linejoin="round"/>
<ellipse cx="85.0156" cy="179.321" rx="0.818327" ry="0.819285" fill="white" stroke="black" stroke-width="1.90137" stroke-linecap="round" stroke-linejoin="round"/>
<path d="M112.728 110.656H137.509V219.088C137.509 225.931 131.961 231.479 125.118 231.479C118.275 231.479 112.728 225.931 112.728 219.088V110.656H112.728Z" fill="white"/>
<mask id="mask5_208_4744" style="mask-type:alpha" maskUnits="userSpaceOnUse" x="112" y="110" width="26" height="122">
<path fill-rule="evenodd" clip-rule="evenodd" d="M112.728 110.656H137.509V219.088C137.509 225.931 131.961 231.479 125.118 231.479C118.275 231.479 112.728 225.931 112.728 219.088V110.656H112.728Z" fill="white"/>
</mask>
<g mask="url(#mask5_208_4744)">
<path d="M109.75 146.959C111.56 124.961 126.309 114.558 132.423 114.558C138.537 114.558 115.981 112.607 115.981 112.607L106.537 114.558L107.341 122.481" fill="#D6DCF2"/>
<path d="M140.486 184.574C137.509 219.074 134.389 231.513 125.118 233.927C115.847 236.341 144.782 234.464 144.782 234.464L142.37 195.84L140.486 184.574Z" fill="#D6DCF2"/>
</g>
<path fill-rule="evenodd" clip-rule="evenodd" d="M112.728 110.656H137.509V219.088C137.509 225.931 131.961 231.479 125.118 231.479V231.479C118.275 231.479 112.728 225.931 112.728 219.088V110.656H112.728Z" stroke="black" stroke-width="1.90137" stroke-linecap="round" stroke-linejoin="round"/>
<rect x="109.751" y="110.656" width="30.736" height="3.90194" rx="1.42708" fill="white" stroke="black" stroke-width="1.90137" stroke-linecap="round" stroke-linejoin="round"/>
<path d="M124.902 229.547H125.336C128.271 229.545 131.086 228.377 133.161 226.3C135.236 224.223 136.4 221.407 136.399 218.471V170.485C125.47 173.756 122.479 162.084 113.839 164.22V218.471C113.837 221.407 115.002 224.223 117.077 226.3C119.151 228.377 121.966 229.545 124.902 229.547Z" fill="#E43334"/>
<mask id="mask6_208_4744" style="mask-type:alpha" maskUnits="userSpaceOnUse" x="113" y="163" width="24" height="67">
<path fill-rule="evenodd" clip-rule="evenodd" d="M124.902 229.547H125.336C128.271 229.545 131.086 228.377 133.161 226.3C135.236 224.223 136.4 221.407 136.399 218.471V170.485C125.47 173.756 122.479 162.084 113.839 164.22V218.471C113.837 221.407 115.002 224.223 117.077 226.3C119.151 228.377 121.966 229.545 124.902 229.547Z" fill="white"/>
</mask>
<g mask="url(#mask6_208_4744)">
<path d="M109.751 220.73C113.839 210.454 115.123 230.411 132.424 229.547C149.725 228.682 120.189 238.426 120.189 238.426L110.445 231.479" fill="#C11F27"/>
</g>
<path fill-rule="evenodd" clip-rule="evenodd" d="M124.902 229.547H125.336C128.271 229.545 131.086 228.377 133.161 226.3C135.236 224.223 136.4 221.407 136.399 218.471V170.485C125.47 173.756 122.479 162.084 113.839 164.22V218.471C113.837 221.407 115.002 224.223 117.077 226.3C119.151 228.377 121.966 229.545 124.902 229.547V229.547Z" stroke="black" stroke-width="1.90137" stroke-linecap="round" stroke-linejoin="round"/>
<ellipse cx="120.188" cy="173.847" rx="0.957459" ry="0.958563" fill="white" stroke="black" stroke-width="1.90137" stroke-linecap="round" stroke-linejoin="round"/>
<ellipse cx="131.1" cy="173.167" rx="1.32312" ry="1.32467" fill="white" stroke="black" stroke-width="1.90137" stroke-linecap="round" stroke-linejoin="round"/>
<ellipse cx="125.118" cy="212.486" rx="3.51001" ry="3.51407" fill="white" stroke="black" stroke-width="1.90137" stroke-linecap="round" stroke-linejoin="round"/>
<ellipse cx="122.546" cy="179.321" rx="0.818327" ry="0.819285" fill="white" stroke="black" stroke-width="1.90137" stroke-linecap="round" stroke-linejoin="round"/>
<path d="M148.004 110.656H172.785V219.088C172.785 225.931 167.238 231.479 160.395 231.479C153.551 231.479 148.004 225.931 148.004 219.088V110.656H148.004Z" fill="white"/>
<mask id="mask7_208_4744" style="mask-type:alpha" maskUnits="userSpaceOnUse" x="148" y="110" width="25" height="122">
<path fill-rule="evenodd" clip-rule="evenodd" d="M148.003 110.656H172.784V219.088C172.784 225.931 167.237 231.479 160.394 231.479C153.55 231.479 148.003 225.931 148.003 219.088V110.656H148.003Z" fill="white"/>
</mask>
<g mask="url(#mask7_208_4744)">
<path d="M145.026 138.541C146.837 116.544 161.585 114.558 167.699 114.558C173.814 114.558 151.257 112.607 151.257 112.607L141.813 114.558L142.617 122.481" fill="#D6DCF2"/>
<path d="M175.762 184.574C172.785 219.074 169.665 231.513 160.394 233.927C151.124 236.341 180.058 234.464 180.058 234.464L177.647 195.84L175.762 184.574Z" fill="#D6DCF2"/>
</g>
<path fill-rule="evenodd" clip-rule="evenodd" d="M148.004 110.656H172.785V219.088C172.785 225.931 167.238 231.479 160.395 231.479V231.479C153.551 231.479 148.004 225.931 148.004 219.088V110.656H148.004Z" stroke="black" stroke-width="1.90137" stroke-linecap="round" stroke-linejoin="round"/>
<rect x="145.025" y="110.656" width="30.736" height="3.90194" rx="1.42708" fill="white" stroke="black" stroke-width="1.90137" stroke-linecap="round" stroke-linejoin="round"/>
<path d="M160.177 229.547H160.61C163.546 229.545 166.361 228.377 168.435 226.3C170.51 224.223 171.675 221.407 171.673 218.471V163.589C160.745 166.859 157.753 155.188 149.113 157.324V218.471C149.112 221.407 150.276 224.223 152.351 226.3C154.426 228.377 157.241 229.545 160.177 229.547Z" fill="#FDD504"/>
<mask id="mask8_208_4744" style="mask-type:alpha" maskUnits="userSpaceOnUse" x="149" y="157" width="23" height="73">
<path fill-rule="evenodd" clip-rule="evenodd" d="M160.178 229.547H160.611C163.547 229.545 166.362 228.377 168.436 226.3C170.511 224.223 171.676 221.407 171.674 218.471V163.589C160.746 166.859 157.754 155.188 149.114 157.324V218.471C149.113 221.407 150.277 224.223 152.352 226.3C154.427 228.377 157.242 229.545 160.178 229.547Z" fill="white"/>
</mask>
<g mask="url(#mask8_208_4744)">
<path d="M142.804 220.729C147.54 211.183 160.521 234.151 172.784 227.589C185.048 221.026 166.376 238.426 166.376 238.426L140.486 234.151" fill="#FCB006"/>
</g>
<path fill-rule="evenodd" clip-rule="evenodd" d="M160.177 229.547H160.61C163.546 229.545 166.361 228.377 168.435 226.3C170.51 224.223 171.675 221.407 171.673 218.471V163.589C160.745 166.859 157.753 155.188 149.113 157.324V218.471C149.112 221.407 150.276 224.223 152.351 226.3C154.426 228.377 157.241 229.545 160.177 229.547Z" stroke="black" stroke-width="1.90137" stroke-linecap="round" stroke-linejoin="round"/>
<ellipse cx="155.464" cy="173.847" rx="0.957459" ry="0.958563" fill="white" stroke="black" stroke-width="1.90137" stroke-linecap="round" stroke-linejoin="round"/>
<ellipse cx="166.376" cy="173.167" rx="1.32312" ry="1.32467" fill="white" stroke="black" stroke-width="1.90137" stroke-linecap="round" stroke-linejoin="round"/>
<ellipse cx="160.393" cy="212.486" rx="3.51001" ry="3.51407" fill="white" stroke="black" stroke-width="1.90137" stroke-linecap="round" stroke-linejoin="round"/>
<ellipse cx="157.821" cy="179.321" rx="0.818327" ry="0.819285" fill="white" stroke="black" stroke-width="1.90137" stroke-linecap="round" stroke-linejoin="round"/>
<rect x="40.2168" y="144.637" width="167.549" height="5.87715" rx="2.14948" fill="#FDD504" stroke="black" stroke-width="1.90137" stroke-linecap="round" stroke-linejoin="round"/>
<rect x="52.8135" y="136.801" width="5.62574" height="105.789" rx="2.05873" fill="#FCB006"/>
<mask id="mask9_208_4744" style="mask-type:alpha" maskUnits="userSpaceOnUse" x="52" y="136" width="7" height="107">
<rect x="52.8135" y="136.801" width="5.62574" height="105.789" rx="2.05873" fill="white"/>
</mask>
<g mask="url(#mask9_208_4744)">
<path d="M44.4293 208.972C49.5247 232.921 79.6996 229.882 82.6585 243.385C85.6174 256.888 61.8387 259.989 60.1403 261.121C58.4418 262.254 49.5813 247.047 47.4017 243.385C45.2221 239.723 38.8623 220.805 38.8623 220.805" fill="#FDD504"/>
</g>
<rect x="52.8135" y="136.801" width="5.62574" height="105.789" rx="2.05873" stroke="black" stroke-width="1.90137" stroke-linecap="round" stroke-linejoin="round"/>
<rect x="189.543" y="136.801" width="5.62574" height="105.789" rx="2.05873" fill="#FCB006"/>
<mask id="mask10_208_4744" style="mask-type:alpha" maskUnits="userSpaceOnUse" x="189" y="136" width="7" height="107">
<rect x="189.542" y="136.801" width="5.62574" height="105.789" rx="2.05873" fill="white"/>
</mask>
<g mask="url(#mask10_208_4744)">
<path d="M203.66 161.927C175.761 184.574 168.842 180.138 185.826 196.752C202.811 213.366 213.851 218.467 197.716 223.994C181.58 229.52 218.097 229.547 218.097 229.547L211.728 172.889L207.765 165.753" fill="#FDD504"/>
</g>
<rect x="189.543" y="136.801" width="5.62574" height="105.789" rx="2.05873" stroke="black" stroke-width="1.90137" stroke-linecap="round" stroke-linejoin="round"/>
<path d="M50.1287 238.426H197.854C203.328 238.426 207.766 242.864 207.766 248.338V248.344H40.2168V248.338C40.2168 245.709 41.2611 243.188 43.1199 241.329C44.9788 239.47 47.4999 238.426 50.1287 238.426V238.426Z" fill="#FCB006"/>
<mask id="mask11_208_4744" style="mask-type:alpha" maskUnits="userSpaceOnUse" x="40" y="238" width="168" height="11">
<path fill-rule="evenodd" clip-rule="evenodd" d="M50.1287 238.426H197.854C203.328 238.426 207.766 242.864 207.766 248.338V248.344H40.2168V248.338C40.2168 245.709 41.2611 243.188 43.1199 241.329C44.9788 239.47 47.4999 238.426 50.1287 238.426V238.426Z" fill="white"/>
</mask>
<g mask="url(#mask11_208_4744)">
<path d="M33.1768 248.344C74.2586 248.344 208.013 241.21 214.064 244.718C220.115 248.225 199.733 256.304 198.46 256.888C197.186 257.471 33.1768 248.344 33.1768 248.344Z" fill="#FDD504"/>
</g>
<path fill-rule="evenodd" clip-rule="evenodd" d="M50.1287 238.426H197.854C203.328 238.426 207.766 242.864 207.766 248.338V248.344H40.2168V248.338C40.2168 245.709 41.2611 243.188 43.1199 241.329C44.9788 239.47 47.4999 238.426 50.1287 238.426V238.426Z" stroke="black" stroke-width="1.90137" stroke-linecap="round" stroke-linejoin="round"/>
<path d="M159.598 194.616L157.953 197.894" stroke="black" stroke-width="1.90137" stroke-linecap="round" stroke-linejoin="round"/>
<path d="M83.0566 133.876C84.3178 131.818 86.2495 130.258 88.5263 129.457" stroke="black" stroke-width="1.90137" stroke-linecap="round" stroke-linejoin="round"/>
<path d="M97.3555 244.958L99.0238 242.794" stroke="black" stroke-width="1.90137" stroke-linecap="round" stroke-linejoin="round"/>
<path fill-rule="evenodd" clip-rule="evenodd" d="M213.979 112.149H254.285C261.283 112.138 266.95 106.464 266.953 99.4665V77.9061C266.95 70.9088 261.283 65.2351 254.285 65.2233H213.979C206.981 65.2351 201.314 70.9088 201.311 77.9061V99.4665C201.314 106.464 206.981 112.138 213.979 112.149ZM213.296 77.2247C214.474 76.0447 216.073 75.3813 217.741 75.3803L250.524 75.3804C252.192 75.3814 253.791 76.0448 254.97 77.2248C256.148 78.4047 256.81 80.0046 256.809 81.6723V99.4665C256.809 100.136 256.544 100.778 256.071 101.252C255.597 101.726 254.955 101.992 254.286 101.992H213.979C213.31 101.992 212.668 101.726 212.195 101.252C211.722 100.778 211.456 100.136 211.456 99.4665V81.6723C211.456 80.0045 212.117 78.4047 213.296 77.2247Z" fill="#E43334"/>
<mask id="mask12_208_4744" style="mask-type:alpha" maskUnits="userSpaceOnUse" x="201" y="65" width="66" height="48">
<path fill-rule="evenodd" clip-rule="evenodd" d="M254.285 112.149H213.979C206.981 112.138 201.314 106.464 201.311 99.4665V77.9061C201.314 70.9088 206.981 65.2351 213.979 65.2233H254.285C261.283 65.2351 266.95 70.9088 266.953 77.9061V99.4665C266.95 106.464 261.283 112.138 254.285 112.149ZM217.741 75.3803C216.073 75.3813 214.474 76.0447 213.296 77.2247C212.117 78.4047 211.456 80.0045 211.456 81.6723V99.4665C211.456 100.136 211.722 100.778 212.195 101.252C212.668 101.726 213.31 101.992 213.979 101.992H254.286C254.955 101.992 255.597 101.726 256.071 101.252C256.544 100.778 256.809 100.136 256.809 99.4665V81.6723C256.81 80.0046 256.148 78.4047 254.97 77.2248C253.791 76.0448 252.192 75.3814 250.524 75.3804L217.741 75.3803Z" fill="white"/>
</mask>
<g mask="url(#mask12_208_4744)">
<path d="M197.655 73.2029C198.624 87.389 260.199 84.2338 270.865 88.3598C281.532 92.4857 263.835 103.65 262.623 104.135C261.411 104.621 191.594 99.8148 191.594 99.8148L187.23 83.9912" fill="#C11F27"/>
</g>
<path d="M213.979 112.149L213.977 113.1H213.979V112.149ZM201.311 99.4665H200.36L200.36 99.467L201.311 99.4665ZM201.311 77.9061L200.36 77.9056V77.9061H201.311ZM213.979 65.2233V64.2726L213.977 64.2726L213.979 65.2233ZM254.285 65.2233L254.287 64.2726H254.285V65.2233ZM266.953 77.9061H267.904V77.9056L266.953 77.9061ZM266.953 99.4665L267.904 99.467V99.4665H266.953ZM217.741 75.3803L217.741 74.4296H217.741L217.741 75.3803ZM211.456 81.6723H212.407L212.407 81.6717L211.456 81.6723ZM211.456 99.4665L212.407 99.467V99.4665H211.456ZM213.979 101.992L213.979 102.943H213.979V101.992ZM254.286 101.992V102.943H254.287L254.286 101.992ZM256.809 99.4665H255.858V99.467L256.809 99.4665ZM256.809 81.6723L255.858 81.6718V81.6723H256.809ZM250.524 75.3804L250.525 74.4297H250.524V75.3804ZM254.285 111.199H213.979V113.1H254.285V111.199ZM213.98 111.199C207.507 111.188 202.265 105.939 202.261 99.466L200.36 99.467C200.364 106.988 206.456 113.087 213.977 113.1L213.98 111.199ZM202.261 99.4665V77.9061H200.36V99.4665H202.261ZM202.261 77.9066C202.265 71.4336 207.507 66.1849 213.98 66.1739L213.977 64.2726C206.456 64.2853 200.364 70.3841 200.36 77.9056L202.261 77.9066ZM213.979 66.1739H254.285V64.2726H213.979V66.1739ZM254.284 66.1739C260.757 66.1849 265.999 71.4336 266.003 77.9066L267.904 77.9056C267.9 70.3841 261.808 64.2853 254.287 64.2726L254.284 66.1739ZM266.003 77.9061V99.4665H267.904V77.9061H266.003ZM266.003 99.466C265.999 105.939 260.757 111.188 254.284 111.199L254.287 113.1C261.808 113.087 267.9 106.988 267.904 99.467L266.003 99.466ZM217.741 74.4296C215.821 74.4308 213.98 75.1945 212.623 76.5529L213.968 77.8965C214.969 76.895 216.326 76.3318 217.742 76.331L217.741 74.4296ZM212.623 76.5529C211.266 77.9112 210.505 79.7529 210.506 81.6728L212.407 81.6717C212.406 80.2561 212.968 78.8981 213.968 77.8965L212.623 76.5529ZM210.506 81.6723V99.4665H212.407V81.6723H210.506ZM210.506 99.4659C210.505 100.388 210.871 101.272 211.522 101.924L212.867 100.58C212.573 100.285 212.407 99.8844 212.407 99.467L210.506 99.4659ZM211.522 101.924C212.174 102.576 213.057 102.942 213.979 102.943L213.98 101.042C213.563 101.041 213.162 100.875 212.867 100.58L211.522 101.924ZM213.979 102.943H254.286V101.042H213.979V102.943ZM254.287 102.943C255.208 102.942 256.092 102.576 256.743 101.924L255.398 100.58C255.103 100.875 254.703 101.041 254.285 101.042L254.287 102.943ZM256.743 101.924C257.394 101.272 257.76 100.388 257.76 99.4659L255.858 99.467C255.858 99.8844 255.693 100.285 255.398 100.58L256.743 101.924ZM257.76 99.4665V81.6723H255.858V99.4665H257.76ZM257.76 81.6729C257.761 79.753 256.999 77.9113 255.642 76.5529L254.297 77.8966C255.297 78.8982 255.859 80.2562 255.858 81.6718L257.76 81.6729ZM255.642 76.5529C254.285 75.1946 252.445 74.4308 250.525 74.4297L250.524 76.3311C251.939 76.3319 253.297 76.895 254.297 77.8966L255.642 76.5529ZM250.524 74.4297L217.741 74.4296L217.741 76.331L250.524 76.3311L250.524 74.4297Z" fill="black"/>
<rect x="125.299" y="91.7859" width="205.047" height="156.487" rx="12.3445" fill="#D6DCF2" stroke="black" stroke-width="1.90137" stroke-linecap="round" stroke-linejoin="round"/>
<rect x="137.919" y="91.7859" width="205.047" height="156.487" rx="12.3445" fill="white"/>
<mask id="mask13_208_4744" style="mask-type:alpha" maskUnits="userSpaceOnUse" x="137" y="91" width="206" height="158">
<rect x="137.919" y="91.7859" width="205.047" height="156.487" rx="12.3445" fill="white"/>
</mask>
<g mask="url(#mask13_208_4744)">
<path d="M303.058 86.1022C372.464 182.751 275.077 238.972 211.144 252.237C147.211 265.503 352.273 289.507 352.273 289.507L388.5 228.233L366.785 101.992L338.392 71.5732L310.63 72.8366" fill="#D6DCF2"/>
</g>
<rect x="137.919" y="91.7859" width="205.047" height="156.487" rx="12.3445" stroke="black" stroke-width="1.90137" stroke-linecap="round" stroke-linejoin="round"/>
<path d="M275.042 155.727H251.573V132.23C251.575 129.411 249.29 127.123 246.47 127.122H228.104C225.284 127.123 222.999 129.411 223.001 132.23V155.727H199.532C196.712 155.729 194.427 158.016 194.429 160.836V179.223C194.427 182.043 196.712 184.33 199.532 184.332H223.001V207.829C222.999 210.648 225.284 212.936 228.104 212.937H246.47C249.29 212.936 251.574 210.648 251.573 207.829V184.332H275.042C277.862 184.33 280.147 182.043 280.145 179.223V160.836C280.147 158.016 277.862 155.729 275.042 155.727Z" fill="#E43334"/>
<mask id="mask14_208_4744" style="mask-type:alpha" maskUnits="userSpaceOnUse" x="194" y="127" width="87" height="86">
<path fill-rule="evenodd" clip-rule="evenodd" d="M275.042 155.727H251.573V132.23C251.575 129.411 249.29 127.123 246.47 127.122H228.104C225.284 127.123 222.999 129.411 223.001 132.23V155.727H199.532C196.712 155.729 194.427 158.016 194.429 160.836V179.223C194.427 182.043 196.712 184.33 199.532 184.332H223.001V207.829C222.999 210.648 225.284 212.936 228.104 212.937H246.47C249.29 212.936 251.574 210.648 251.573 207.829V184.332H275.042C277.862 184.33 280.147 182.043 280.145 179.223V160.836C280.147 158.016 277.862 155.729 275.042 155.727Z" fill="white"/>
</mask>
<g mask="url(#mask14_208_4744)">
<path d="M254.632 140.901C263.623 164.59 248.48 196.378 202.578 212.937C156.675 229.496 290.123 229.496 290.123 229.496L300.534 185.909L280.145 154.641L251.573 132.23" fill="#C11F27"/>
</g>
<path fill-rule="evenodd" clip-rule="evenodd" d="M275.042 155.727H251.573V132.23C251.575 129.411 249.29 127.123 246.47 127.122H228.104C225.284 127.123 222.999 129.411 223.001 132.23V155.727H199.532C196.712 155.729 194.427 158.016 194.429 160.836V179.223C194.427 182.043 196.712 184.33 199.532 184.332H223.001V207.829C222.999 210.648 225.284 212.936 228.104 212.937H246.47C249.29 212.936 251.574 210.648 251.573 207.829V184.332H275.042C277.862 184.33 280.147 182.043 280.145 179.223V160.836C280.147 158.016 277.862 155.729 275.042 155.727V155.727Z" stroke="black" stroke-width="1.90137" stroke-linecap="round" stroke-linejoin="round"/>
<path d="M181.554 123.614L174.099 131.056" stroke="black" stroke-width="1.90137" stroke-linecap="round" stroke-linejoin="round"/>
<path d="M287.364 212.394C284.81 215.556 281.742 218.265 278.288 220.407" stroke="black" stroke-width="1.90137" stroke-linecap="round" stroke-linejoin="round"/>
<path d="M361.56 169.983V167.038L362.719 166.581C364.273 165.967 365.294 164.466 365.294 162.795V161.034L348.436 159.335L331.578 161.034V162.795C331.578 164.466 332.599 165.967 334.153 166.581L335.312 167.038V169.983C335.312 169.983 322.866 175.42 322.866 188.559V244.083C322.866 245.158 323.292 246.19 324.052 246.951C324.812 247.712 325.843 248.14 326.919 248.14H369.953C371.029 248.14 372.06 247.712 372.82 246.951C373.58 246.19 374.006 245.158 374.006 244.083V188.559C374.006 175.42 361.56 169.983 361.56 169.983Z" fill="#FDD504"/>
<mask id="mask15_208_4744" style="mask-type:alpha" maskUnits="userSpaceOnUse" x="322" y="159" width="53" height="90">
<path fill-rule="evenodd" clip-rule="evenodd" d="M361.56 169.983V167.038L362.719 166.581C364.273 165.967 365.294 164.466 365.294 162.795V161.034L348.436 159.335L331.578 161.034V162.795C331.578 164.466 332.599 165.967 334.153 166.581L335.312 167.038V169.983C335.312 169.983 322.866 175.42 322.866 188.559V244.083C322.866 245.158 323.292 246.19 324.052 246.951C324.812 247.712 325.843 248.14 326.919 248.14H369.953C371.029 248.14 372.06 247.712 372.82 246.951C373.58 246.19 374.006 245.158 374.006 244.083V188.559C374.006 175.42 361.56 169.983 361.56 169.983Z" fill="white"/>
</mask>
<g mask="url(#mask15_208_4744)">
<path d="M344.023 166.047C333.641 170.872 373.127 159.335 371.54 203.738C369.953 248.14 346.248 250.995 346.248 250.995L379.494 250.382L382.554 188.305L367.868 161.759L350.735 160.738" fill="#FCB006"/>
</g>
<path fill-rule="evenodd" clip-rule="evenodd" d="M361.56 169.983V167.038L362.719 166.581C364.273 165.967 365.294 164.466 365.294 162.795V161.034L348.436 159.335L331.578 161.034V162.795C331.578 164.466 332.599 165.967 334.153 166.581L335.312 167.038V169.983C335.312 169.983 322.866 175.42 322.866 188.559V244.083C322.866 245.158 323.292 246.19 324.052 246.951C324.812 247.712 325.843 248.14 326.919 248.14H369.953C371.029 248.14 372.06 247.712 372.82 246.951C373.58 246.19 374.006 245.158 374.006 244.083V188.559C374.006 175.42 361.56 169.983 361.56 169.983Z" stroke="black" stroke-width="1.90137" stroke-linecap="round" stroke-linejoin="round"/>
<rect x="322.641" y="198.754" width="34.8473" height="31.263" fill="#1AB995" stroke="black" stroke-width="1.90137" stroke-linecap="round" stroke-linejoin="round"/>
<rect x="340.064" y="204.568" width="16.7448" height="4.53087" fill="white" stroke="black" stroke-width="1.90137" stroke-linecap="round" stroke-linejoin="round"/>
<path d="M334.434 141.091H362.438C364.674 141.091 366.487 142.904 366.487 145.14V164.185C366.487 166.468 364.636 168.319 362.353 168.319H334.519C332.236 168.319 330.385 166.468 330.385 164.185V145.14C330.385 142.904 332.198 141.091 334.434 141.091V141.091Z" fill="white"/>
<mask id="mask16_208_4744" style="mask-type:alpha" maskUnits="userSpaceOnUse" x="330" y="141" width="37" height="28">
<path fill-rule="evenodd" clip-rule="evenodd" d="M334.435 141.091H362.439C364.675 141.091 366.488 142.904 366.488 145.14V164.185C366.488 166.468 364.637 168.319 362.354 168.319H334.52C332.237 168.319 330.386 166.468 330.386 164.185V145.14C330.386 142.904 332.199 141.091 334.435 141.091V141.091Z" fill="white"/>
</mask>
<g mask="url(#mask16_208_4744)">
<path d="M338.569 141.091C367.054 141.543 366.488 145.014 366.488 151.957C366.488 158.9 374.006 141.091 374.006 141.091L362.116 136.234L351.459 136.438L334.156 138.072" fill="#D6DCF2"/>
</g>
<path fill-rule="evenodd" clip-rule="evenodd" d="M334.434 141.091H362.438C364.674 141.091 366.487 142.904 366.487 145.14V164.185C366.487 166.468 364.636 168.319 362.353 168.319H334.519C332.236 168.319 330.385 166.468 330.385 164.185V145.14C330.385 142.904 332.198 141.091 334.434 141.091V141.091Z" stroke="black" stroke-width="1.90137" stroke-linecap="round" stroke-linejoin="round"/>
<rect x="334.156" y="145.468" width="2.08591" height="18.4736" rx="0.763327" fill="white" stroke="black" stroke-width="1.90137" stroke-linecap="round" stroke-linejoin="round"/>
<rect x="338.568" y="145.468" width="2.08591" height="18.4736" rx="0.763327" fill="white" stroke="black" stroke-width="1.90137" stroke-linecap="round" stroke-linejoin="round"/>
<rect x="342.98" y="145.468" width="2.08591" height="18.4736" rx="0.763327" fill="white" stroke="black" stroke-width="1.90137" stroke-linecap="round" stroke-linejoin="round"/>
<rect x="347.394" y="145.468" width="2.08591" height="18.4736" rx="0.763327" fill="white" stroke="black" stroke-width="1.90137" stroke-linecap="round" stroke-linejoin="round"/>
<rect x="351.806" y="145.468" width="2.08591" height="18.4736" rx="0.763327" fill="white" stroke="black" stroke-width="1.90137" stroke-linecap="round" stroke-linejoin="round"/>
<rect x="356.219" y="145.468" width="2.08591" height="18.4736" rx="0.763327" fill="white" stroke="black" stroke-width="1.90137" stroke-linecap="round" stroke-linejoin="round"/>
<rect x="360.631" y="145.468" width="2.08591" height="18.4736" rx="0.763327" fill="white" stroke="black" stroke-width="1.90137" stroke-linecap="round" stroke-linejoin="round"/>
<path d="M359.531 182.166C360.462 183.328 361.144 184.67 361.535 186.107" stroke="black" stroke-width="1.90137" stroke-linecap="round" stroke-linejoin="round"/>
<path d="M340.69 234.85C340.515 236.053 340.942 237.265 341.834 238.091" stroke="black" stroke-width="1.90137" stroke-linecap="round" stroke-linejoin="round"/>
<path d="M384.608 191.586C406.077 199.958 429.2 190.123 429.2 190.123L407.104 71.476C409.958 70.7127 387.512 85.8717 384.608 191.586Z" fill="#D6DCF2"/>
<path d="M441.235 223.205L417.56 205.033L430.157 198.338L453.244 221.033L441.235 223.205Z" fill="#FACCC4"/>
<mask id="mask17_208_4744" style="mask-type:alpha" maskUnits="userSpaceOnUse" x="417" y="198" width="37" height="26">
<path fill-rule="evenodd" clip-rule="evenodd" d="M441.235 223.205L417.56 205.033L430.157 198.338L453.244 221.033L441.235 223.205Z" fill="white"/>
</mask>
<g mask="url(#mask17_208_4744)">
<path d="M430.742 218.358C439.798 217.71 441.359 208.819 441.359 208.819L432.053 210.771L427.86 213.645" fill="#ED707B"/>
</g>
<path fill-rule="evenodd" clip-rule="evenodd" d="M441.235 223.205L417.56 205.033L430.157 198.338L453.244 221.033L441.235 223.205V223.205Z" stroke="black" stroke-width="1.90137" stroke-linecap="round" stroke-linejoin="round"/>
<path d="M428.066 247.428C423.936 242.999 434.012 236.446 436.109 229.644C438.206 222.842 434.759 221.346 434.759 221.346L447.352 214.715L452.374 219.459C453.175 220.2 453.627 221.243 453.618 222.334C453.61 223.425 453.142 224.461 452.329 225.189L428.066 247.428Z" fill="#485065" stroke="black" stroke-width="1.90137" stroke-linecap="round" stroke-linejoin="round"/>
<path d="M427.514 218.358C427.514 218.358 438.797 213.744 442.599 207L414.34 168.585L425.845 113.622L401.036 111.492L389.524 165.016C389.371 165.777 389.312 166.555 389.349 167.332C389.443 169.317 390.254 171.211 391.509 172.799L427.514 218.358Z" fill="white"/>
<path fill-rule="evenodd" clip-rule="evenodd" d="M427.514 218.358C427.514 218.358 438.797 213.744 442.599 207L414.34 168.585L425.845 113.622L401.036 111.492L389.524 165.016C389.371 165.777 389.312 166.555 389.349 167.332C389.443 169.317 390.254 171.211 391.509 172.799L427.514 218.358Z" stroke="black" stroke-width="1.90137" stroke-linecap="round" stroke-linejoin="round"/>
<path d="M424.587 239.945L419.567 211.276L433.053 215.128L435.056 246.021L424.587 239.945Z" fill="#FACCC4"/>
<mask id="mask18_208_4744" style="mask-type:alpha" maskUnits="userSpaceOnUse" x="419" y="211" width="17" height="36">
<path fill-rule="evenodd" clip-rule="evenodd" d="M424.588 239.945L419.568 211.276L433.054 215.128L435.057 246.021L424.588 239.945Z" fill="white"/>
</mask>
<g mask="url(#mask18_208_4744)">
<path d="M419.568 232.654C428.12 233.592 433.863 227.602 433.863 227.602L423.561 227.714L419.876 229.465" fill="#ED707B"/>
</g>
<path fill-rule="evenodd" clip-rule="evenodd" d="M424.587 239.945L419.567 211.276L433.053 215.128L435.056 246.021L424.587 239.945V239.945Z" stroke="black" stroke-width="1.90137" stroke-linecap="round" stroke-linejoin="round"/>
<path d="M397.912 249.519C397.912 243.581 409.987 245.162 416.283 241.449C422.579 237.736 421.049 234.417 421.049 234.417L435.056 237.552L435.583 245.525C435.687 247.096 434.404 248.438 432.75 248.487L397.912 249.519Z" fill="#485065" stroke="black" stroke-width="1.90137" stroke-linecap="round" stroke-linejoin="round"/>
<path d="M404.123 134.374L416.843 228.648C426.622 234.417 434.884 226.795 434.884 226.795L428.618 170.07L430.522 111.492H401.036" fill="white"/>
<path d="M399.418 112.727C405.067 127.235 419.706 96.5934 429.291 149.373C430.79 157.626 438.925 138.007 439.798 125.109C440.099 120.672 430.522 111.492 430.522 111.492L399.418 112.727Z" fill="#1AB995"/>
<path d="M399.418 112.727C405.067 127.235 419.706 96.5934 429.291 149.373C430.79 157.626 438.925 138.007 439.798 125.109C440.099 120.672 430.522 111.492 430.522 111.492L399.418 112.727" stroke="black" stroke-width="1.90137" stroke-linecap="round" stroke-linejoin="round"/>
<path d="M404.123 134.374L416.843 228.648C426.622 234.417 434.884 226.795 434.884 226.795L428.618 170.07L430.522 111.492H401.036" stroke="black" stroke-width="1.90137" stroke-linecap="round" stroke-linejoin="round"/>
<path d="M380.292 89.1956C380.292 89.1956 392.695 65.4618 398.097 65.3832L401.302 63.8909C401.861 63.7461 402.836 67.5931 402.813 68.1702L402.171 77.6016C402.168 77.6801 402.154 77.7579 402.13 77.8327L397.121 93.2337C396.985 93.6545 396.551 93.9029 396.119 93.8076L380.866 90.4391C380.604 90.3809 380.383 90.2036 380.271 89.9596C380.158 89.7156 380.166 89.433 380.292 89.1956Z" fill="white"/>
<mask id="mask19_208_4744" style="mask-type:alpha" maskUnits="userSpaceOnUse" x="380" y="63" width="23" height="31">
<path fill-rule="evenodd" clip-rule="evenodd" d="M380.292 89.1956C380.292 89.1956 392.695 65.4618 398.097 65.3832L401.302 63.8909C401.861 63.7461 402.836 67.5931 402.813 68.1702L402.171 77.6016C402.168 77.6801 402.154 77.7579 402.13 77.8327L397.121 93.2337C396.985 93.6545 396.551 93.9029 396.119 93.8076L380.866 90.4391C380.604 90.3809 380.383 90.2036 380.271 89.9596C380.158 89.7156 380.166 89.433 380.292 89.1956Z" fill="white"/>
</mask>
<g mask="url(#mask19_208_4744)">
<path d="M392.216 80.4948C390.063 78.9376 388.605 94.7926 384.608 95.4896C380.611 96.1865 387.55 101.098 387.55 101.098L394.58 92.7049" fill="white"/>
<path d="M392.216 80.4948C390.063 78.9376 388.605 94.7926 384.608 95.4896C380.611 96.1865 387.55 101.098 387.55 101.098L394.58 92.7049" stroke="black" stroke-width="1.90137" stroke-linecap="round" stroke-linejoin="round"/>
</g>
<path fill-rule="evenodd" clip-rule="evenodd" d="M380.292 89.1956C380.292 89.1956 392.695 65.4618 398.097 65.3832L401.302 63.8909C401.861 63.7461 402.836 67.5931 402.813 68.1702L402.171 77.6016C402.168 77.6801 402.154 77.7579 402.13 77.8327L397.121 93.2337C396.985 93.6545 396.551 93.9029 396.119 93.8076L380.866 90.4391C380.604 90.3809 380.383 90.2036 380.271 89.9596C380.158 89.7156 380.166 89.433 380.292 89.1956Z" stroke="black" stroke-width="1.90137" stroke-linecap="round" stroke-linejoin="round"/>
<path d="M398.065 113.078C419.022 120.639 432.013 110.994 432.013 110.994C432.013 110.994 423.519 76.4871 431.114 66.5482C431.114 66.5482 421.571 59.6215 405.49 62.6394C403.461 63.0203 401.067 63.2698 399.871 64.9548C395.712 70.8125 395.503 87.5811 399.485 90.1786C399.485 90.1787 401.156 101.699 398.065 113.078Z" fill="#FDD504"/>
<mask id="mask20_208_4744" style="mask-type:alpha" maskUnits="userSpaceOnUse" x="396" y="61" width="37" height="55">
<path fill-rule="evenodd" clip-rule="evenodd" d="M398.064 113.078C419.021 120.639 432.012 110.994 432.012 110.994C432.012 110.994 423.518 76.4871 431.113 66.5482C431.113 66.5482 421.57 59.6215 405.49 62.6394C403.46 63.0203 401.066 63.2698 399.87 64.9548C395.711 70.8125 395.502 87.5811 399.484 90.1786C399.484 90.1787 401.155 101.699 398.064 113.078Z" fill="white"/>
</mask>
<g mask="url(#mask20_208_4744)">
<ellipse cx="415" cy="61.0296" rx="11.1093" ry="3.71563" transform="rotate(-12.9062 415 61.0296)" fill="#FACCC4" stroke="black" stroke-width="1.90137" stroke-linecap="round" stroke-linejoin="round"/>
<path d="M426.529 78.4978L421.463 80.9389C421.463 80.9389 424.95 100.45 408.297 95.3714L407.273 104.223C407.273 104.223 428.16 115.253 408.297 114.97C388.434 114.686 424.005 125.61 424.508 125.905C425.012 126.2 452.586 117.238 452.586 117.238L446.214 94.151L429.361 79.6558" fill="url(#paint1_linear_208_4744)"/>
</g>
<path fill-rule="evenodd" clip-rule="evenodd" d="M398.065 113.078C419.022 120.639 432.013 110.994 432.013 110.994C432.013 110.994 423.519 76.4871 431.114 66.5482C431.114 66.5482 421.571 59.6215 405.49 62.6394C403.461 63.0203 401.067 63.2698 399.871 64.9548C395.712 70.8125 395.503 87.5811 399.485 90.1786C399.485 90.1787 401.156 101.699 398.065 113.078Z" stroke="black" stroke-width="1.90137" stroke-linecap="round" stroke-linejoin="round"/>
<path d="M408.467 48.3729C410.763 52.4756 407.083 64.2809 407.083 64.2809L419.487 62.6388L417.633 48.3729H408.467Z" fill="#FACCC4"/>
<mask id="mask21_208_4744" style="mask-type:alpha" maskUnits="userSpaceOnUse" x="407" y="48" width="13" height="17">
<path fill-rule="evenodd" clip-rule="evenodd" d="M408.467 48.3729C410.763 52.4756 407.083 64.2809 407.083 64.2809L419.487 62.6388L417.633 48.3729H408.467Z" fill="white"/>
</mask>
<g mask="url(#mask21_208_4744)">
<path d="M398.448 66.0603C407.344 61.9989 410.755 59.6431 413.099 52.5286C416.005 43.7064 406.315 49.3962 406.315 49.3962C406.315 49.3962 405.344 49.3996 404.915 50.2801C404.486 51.1606 401.157 60.0809 401.157 60.0809" fill="#ED707B"/>
</g>
<path fill-rule="evenodd" clip-rule="evenodd" d="M408.467 48.3729C410.763 52.4756 407.083 64.2809 407.083 64.2809L419.487 62.6388L417.633 48.3729H408.467Z" stroke="black" stroke-width="1.90137" stroke-linecap="round" stroke-linejoin="round"/>
<ellipse cx="433.383" cy="22.3761" rx="16.8471" ry="20.3255" transform="rotate(-71.7042 433.383 22.3761)" fill="#485065" stroke="black" stroke-width="1.90137" stroke-linecap="round" stroke-linejoin="round"/>
<ellipse cx="414.262" cy="41.0412" rx="10.2347" ry="12.4218" transform="rotate(-71.7074 414.262 41.0412)" fill="#485065" stroke="black" stroke-width="1.90137" stroke-linecap="round" stroke-linejoin="round"/>
<path d="M408.402 34.2458C393.946 50.4829 405.896 58.8616 413.101 52.5286L417.785 43.6923L408.402 34.2458Z" fill="#FACCC4"/>
<mask id="mask22_208_4744" style="mask-type:alpha" maskUnits="userSpaceOnUse" x="401" y="34" width="17" height="21">
<path fill-rule="evenodd" clip-rule="evenodd" d="M408.401 34.2458C393.945 50.4829 405.895 58.8616 413.1 52.5286L417.784 43.6923L408.401 34.2458Z" fill="white"/>
</mask>
<g mask="url(#mask22_208_4744)">
<ellipse opacity="0.27" cx="401.105" cy="46.5083" rx="1.60688" ry="2.108" transform="rotate(-76.8231 401.105 46.5083)" fill="#ED707B"/>
<ellipse opacity="0.27" cx="410.801" cy="48.7707" rx="1.60688" ry="2.108" transform="rotate(-76.8231 410.801 48.7707)" fill="#ED707B"/>
<path d="M410.007 43.5606C410.197 43.6195 410.355 43.7515 410.448 43.9274C410.54 44.1033 410.559 44.3088 410.5 44.4987L410.124 45.71C410.001 46.1053 409.581 46.3263 409.186 46.2035C408.791 46.0807 408.57 45.6607 408.692 45.2654L409.069 44.054C409.191 43.6587 409.611 43.4378 410.007 43.5606L410.007 43.5606Z" fill="#190000"/>
<path d="M410.505 41.8018C411.834 42.682 411.314 43.3274 410.448 42.8313C409.581 42.3353 409.637 41.2267 410.505 41.8018Z" fill="#190000"/>
<path d="M406.922 45.829C406.828 46.3275 406.439 46.0488 405.913 45.9489C405.387 45.8489 404.924 45.9655 405.018 45.4671C405.141 44.9662 405.635 44.6493 406.142 44.7456C406.648 44.8419 406.991 45.3178 406.922 45.829Z" fill="#ED707B"/>
<path d="M403.409 47.8954C403.318 51.6136 407.003 50.834 407.534 48.6244C407.56 48.5096 407.511 48.3911 407.412 48.3275C406.996 48.0541 405.757 47.4012 403.664 47.6208C403.523 47.6359 403.414 47.753 403.409 47.8954Z" fill="#C1525F"/>
<mask id="mask23_208_4744" style="mask-type:alpha" maskUnits="userSpaceOnUse" x="403" y="47" width="5" height="4">
<path fill-rule="evenodd" clip-rule="evenodd" d="M403.409 47.8954C403.318 51.6136 407.003 50.834 407.534 48.6244C407.56 48.5096 407.511 48.3911 407.412 48.3275C406.996 48.0541 405.757 47.4012 403.664 47.6208C403.523 47.6359 403.414 47.753 403.409 47.8954Z" fill="white"/>
</mask>
<g mask="url(#mask23_208_4744)">
<ellipse cx="405.547" cy="50.4105" rx="1.86241" ry="1.66413" transform="rotate(-7.2651 405.547 50.4105)" fill="#993443"/>
<path d="M404.159 47.452C404.115 47.6898 404.077 48.017 404.128 48.0875C404.441 48.5217 406.322 48.7114 406.614 48.5525C406.695 48.5082 406.849 47.7438 406.849 47.7438L404.465 47.3762" fill="white"/>
<path d="M404.159 47.452C404.115 47.6898 404.077 48.017 404.128 48.0875C404.441 48.5217 406.322 48.7114 406.614 48.5525C406.695 48.5082 406.849 47.7438 406.849 47.7438L404.465 47.3762" stroke="black" stroke-width="1.90137" stroke-linecap="round" stroke-linejoin="round"/>
</g>
</g>
<path fill-rule="evenodd" clip-rule="evenodd" d="M408.402 34.2458C393.946 50.4829 405.896 58.8616 413.101 52.5286L417.785 43.6923L408.402 34.2458Z" stroke="black" stroke-width="1.90137" stroke-linecap="round" stroke-linejoin="round"/>
<path d="M416.378 47.9749L420.627 43.1773L413.148 32.7948L409.233 32.5577C408.16 32.5343 407.204 33.2338 406.901 34.2642" fill="#485065"/>
<path d="M406.901 34.2642C405.638 38.0185 405.484 44.3555 416.378 47.9748L406.901 34.2642Z" fill="#485065"/>
<path d="M406.901 34.2642C405.638 38.0185 405.484 44.3555 416.378 47.9748" stroke="black" stroke-width="1.90137" stroke-linecap="round" stroke-linejoin="round"/>
<path d="M413.017 46.6133C424.088 43.7836 420.606 53.7702 412.095 52.1976L413.017 46.6133Z" fill="#FACCC4"/>
<path d="M413.017 46.6133C424.088 43.7836 420.606 53.7702 412.095 52.1976" stroke="black" stroke-width="1.90137" stroke-linecap="round" stroke-linejoin="round"/>
<ellipse cx="417.007" cy="52.4908" rx="2.00513" ry="2.00745" fill="#F9C1BB" stroke="black" stroke-width="1.90137" stroke-linecap="round" stroke-linejoin="round"/>
<path d="M434.478 70.11L431.587 65.4696C431.587 65.4696 423.572 62.5064 420.438 61.8025C420.438 61.8025 413.743 65.8522 408.684 66.4149C389.479 122.22 427.159 187.497 416.751 200.627C416.751 200.627 449.613 200.65 464.602 185.306C432.013 125.59 434.478 70.11 434.478 70.11Z" fill="white"/>
<mask id="mask24_208_4744" style="mask-type:alpha" maskUnits="userSpaceOnUse" x="403" y="61" width="62" height="140">
<path fill-rule="evenodd" clip-rule="evenodd" d="M434.478 70.11L431.587 65.4696C431.587 65.4696 423.572 62.5064 420.438 61.8025C420.438 61.8025 413.743 65.8522 408.684 66.4149C389.479 122.22 427.159 187.497 416.751 200.627C416.751 200.627 449.613 200.65 464.602 185.306C432.013 125.59 434.478 70.11 434.478 70.11Z" fill="white"/>
</mask>
<g mask="url(#mask24_208_4744)">
<path d="M408.525 108.146C405.499 112.39 440.511 118.956 443.424 131.029C446.338 143.102 442.599 117.077 442.599 117.077L432.013 106.295" fill="#D6DCF2"/>
<path d="M424.963 83.6527C421.463 80.9389 428.785 98.5414 415.513 96.7403C402.457 94.9685 414.317 103.054 414.317 103.054L430.694 104.889L431.46 94.151" fill="#D6DCF2"/>
<path d="M473.351 167.611C453.903 192.772 426.538 205.086 426.538 205.086L480.124 200.627" fill="#D6DCF2"/>
</g>
<path fill-rule="evenodd" clip-rule="evenodd" d="M434.478 70.11L431.587 65.4696C431.587 65.4696 423.572 62.5064 420.438 61.8025C420.438 61.8025 413.743 65.8522 408.684 66.4149C389.479 122.22 427.159 187.497 416.751 200.627C416.751 200.627 449.613 200.65 464.602 185.306C432.013 125.59 434.478 70.11 434.478 70.11Z" stroke="black" stroke-width="1.90137" stroke-linecap="round" stroke-linejoin="round"/>
<path d="M398.098 65.3833C398.098 65.3833 403.455 61.9182 406.304 61.9182C406.304 61.9182 406.061 64.8206 408.684 66.415C408.684 66.415 386.8 138.575 389.692 128.495C393.323 115.844 387.182 91.6879 393.322 74.4231" fill="white"/>
<path d="M398.098 65.3833C398.098 65.3833 403.455 61.9182 406.304 61.9182C406.304 61.9182 406.061 64.8206 408.684 66.415C408.684 66.415 386.8 138.575 389.692 128.495C393.323 115.844 387.182 91.6879 393.322 74.4231" stroke="black" stroke-width="1.90137" stroke-linecap="round" stroke-linejoin="round"/>
<path d="M407.259 63.7228L404.242 67.3276L402.457 80.1494L409.249 82.3074L417.747 69.4757L417.999 64.7668L413.002 64.8681L410.376 64.3722L408.241 64.1889" fill="#FDD504"/>
<path d="M407.259 63.7228L404.242 67.3276L402.457 80.1494L409.249 82.3074L417.747 69.4757L417.999 64.7668L413.002 64.8681L410.376 64.3722L408.241 64.1889" stroke="black" stroke-width="1.90137" stroke-linecap="round" stroke-linejoin="round"/>
<path d="M409.548 66.8816L402.421 80.9993L401.415 91.3775L404.369 90.5187L410.493 79.9558L411.983 66.4222L409.548 66.8816Z" fill="#1A80FD" stroke="black" stroke-width="1.90137" stroke-linecap="round" stroke-linejoin="round"/>
<path d="M408.908 63.9852V66.9068C409.031 67.6474 410.037 68.259 410.743 68.3615L411.313 68.4443C412.01 68.5455 412.801 68.2292 413.406 67.6081L415.595 65.3587L412.111 64.4946L408.908 63.9852Z" fill="#1A80FD" stroke="black" stroke-width="1.90137" stroke-linecap="round" stroke-linejoin="round"/>
<path d="M407.314 60.5905C407.314 60.5905 407.994 58.3589 408.602 58.4556C408.602 58.4556 407.174 61.9111 410.495 63.3876L407.138 68.5421C407.138 68.5421 405.151 63.2552 407.314 60.5905Z" fill="#FDD504" stroke="black" stroke-width="1.90137" stroke-linecap="round" stroke-linejoin="round"/>
<path d="M420.595 62.3471C420.595 62.3471 419.759 59.2251 419.151 59.1284C419.151 59.1284 414.649 62.212 410.494 63.3876L413.434 69.4331C413.434 69.4331 420.696 65.372 420.595 62.3471Z" fill="#FDD504" stroke="black" stroke-width="1.90137" stroke-linecap="round" stroke-linejoin="round"/>
<path d="M407.53 59.9733C407.53 59.9733 402.923 92.248 403.404 95.4896L401.68 93.8584L399.678 75.8474L402.682 73.2145L399.278 71.2378L404.508 61.878C404.508 61.878 404.84 60.8801 407.53 59.9733Z" fill="white" stroke="black" stroke-width="1.90137" stroke-linecap="round" stroke-linejoin="round"/>
<path d="M420.052 60.4993L401.681 93.8583L417.706 79.9177L415.829 75.2427L420.176 73.651L421.446 63.8664C421.446 63.8664 422.099 61.704 420.052 60.4993Z" fill="white" stroke="black" stroke-width="1.90137" stroke-linecap="round" stroke-linejoin="round"/>
<path d="M396.024 94.151L394.58 92.705L403.552 83.7228C403.954 83.32 405.398 84.7661 404.996 85.1689L396.024 94.151Z" fill="#FDD504"/>
<mask id="mask25_208_4744" style="mask-type:alpha" maskUnits="userSpaceOnUse" x="394" y="83" width="12" height="12">
<path fill-rule="evenodd" clip-rule="evenodd" d="M396.025 94.151L394.581 92.705L403.553 83.7228C403.955 83.32 405.399 84.7661 404.997 85.1689L396.025 94.151Z" fill="white"/>
</mask>
<g mask="url(#mask25_208_4744)">
<path opacity="0.22" d="M394.408 93.8363L394.185 93.6121L402.816 84.9709L403.04 85.195L394.408 93.8363Z" fill="#EEF7FE"/>
<path opacity="0.22" d="M394.812 94.2395L394.588 94.0153L403.219 85.3741L403.443 85.5982L394.812 94.2395Z" fill="#EEF7FE"/>
<path opacity="0.22" d="M395.197 94.6262L394.973 94.402L403.604 85.7609L403.828 85.9849L395.197 94.6262Z" fill="#EEF7FE"/>
<path d="M403.871 86.7736L401.939 84.8396L404.785 81.9911L406.716 83.9249L403.871 86.7736Z" fill="#7A24EA" stroke="black" stroke-width="1.90137" stroke-linecap="round" stroke-linejoin="round"/>
<path d="M403.683 86.5854L401.924 84.8242L401.284 85.4651L403.043 87.2263L403.683 86.5854Z" fill="white" stroke="black" stroke-width="1.90137" stroke-linecap="round" stroke-linejoin="round"/>
</g>
<path fill-rule="evenodd" clip-rule="evenodd" d="M396.024 94.151L394.58 92.705L403.552 83.7228C403.954 83.32 405.398 84.7661 404.996 85.1689L396.024 94.151Z" stroke="black" stroke-width="1.90137" stroke-linecap="round" stroke-linejoin="round"/>
<path d="M391.525 97.209C391.473 97.157 391.51 97.0254 391.62 96.8707L394.58 92.705L396.024 94.151L391.863 97.1139C391.708 97.2239 391.577 97.2609 391.525 97.209Z" fill="url(#paint2_radial_208_4744)"/>
<mask id="mask26_208_4744" style="mask-type:alpha" maskUnits="userSpaceOnUse" x="391" y="92" width="6" height="6">
<path fill-rule="evenodd" clip-rule="evenodd" d="M391.526 97.209C391.474 97.157 391.511 97.0254 391.621 96.8707L394.58 92.705L396.025 94.151L391.864 97.1139C391.709 97.2239 391.578 97.2609 391.526 97.209Z" fill="white"/>
</mask>
<g mask="url(#mask26_208_4744)">
<path d="M395.775 94.9892L393.747 92.9587L394.833 91.871L396.862 93.9015L395.775 94.9892Z" fill="url(#paint3_radial_208_4744)"/>
<ellipse cx="390.713" cy="97.8445" rx="2.74521" ry="0.895435" transform="rotate(-45.0411 390.713 97.8445)" fill="#485065" stroke="black" stroke-width="1.90137" stroke-linecap="round" stroke-linejoin="round"/>
</g>
<path d="M411.544 96.3226L402.389 93.8279L399.484 90.1787C398.577 89.0387 397.061 88.5763 395.672 89.0161L389.337 91.0234L397.671 99.6287L413.84 104.889L411.544 96.3226Z" fill="#FACCC4"/>
<mask id="mask27_208_4744" style="mask-type:alpha" maskUnits="userSpaceOnUse" x="389" y="88" width="25" height="17">
<path fill-rule="evenodd" clip-rule="evenodd" d="M411.544 96.3226L402.389 93.8279L399.484 90.1787C398.577 89.0387 397.061 88.5763 395.672 89.0161L389.337 91.0234L397.671 99.6287L413.84 104.889L411.544 96.3226Z" fill="white"/>
</mask>
<g mask="url(#mask27_208_4744)">
<path d="M406.382 94.1509C402.389 93.8278 406.272 104.966 398.985 101.855C393.753 99.6215 408.181 105.809 408.181 105.809L408.297 95.3713" fill="#ED707B"/>
</g>
<path fill-rule="evenodd" clip-rule="evenodd" d="M411.544 96.3226L402.389 93.8279L399.484 90.1787C398.577 89.0387 397.061 88.5763 395.672 89.0161L389.337 91.0234L397.671 99.6287L413.84 104.889L411.544 96.3226Z" stroke="black" stroke-width="1.90137" stroke-linecap="round" stroke-linejoin="round"/>
<path d="M355.141 79.0099L379.118 102.026C379.444 102.339 379.876 102.519 380.328 102.53C383.548 102.606 396.793 102.542 400.828 102.52C401.022 102.519 401.196 102.4 401.268 102.22C401.34 102.039 401.296 101.833 401.156 101.699C397.217 97.8928 380.683 81.9187 377.445 78.8466C377.087 78.5071 376.613 78.3181 376.12 78.3186H355.419C355.255 78.3188 355.108 78.4185 355.047 78.5705C354.985 78.7226 355.023 78.8964 355.141 79.0099Z" fill="#7A24EA"/>
<mask id="mask28_208_4744" style="mask-type:alpha" maskUnits="userSpaceOnUse" x="355" y="78" width="47" height="25">
<path fill-rule="evenodd" clip-rule="evenodd" d="M355.141 79.0099L379.118 102.026C379.444 102.339 379.876 102.519 380.328 102.53C383.548 102.606 396.793 102.542 400.828 102.52C401.022 102.519 401.196 102.4 401.268 102.22C401.34 102.039 401.296 101.833 401.156 101.699C397.217 97.8928 380.683 81.9187 377.445 78.8466C377.087 78.5071 376.613 78.3181 376.12 78.3186H355.419C355.255 78.3188 355.108 78.4185 355.047 78.5705C354.985 78.7226 355.023 78.8964 355.141 79.0099Z" fill="white"/>
</mask>
<g mask="url(#mask28_208_4744)">
<path d="M379.277 98.1396C383.046 98.6338 380.264 102.542 387.443 102.093C394.622 101.643 376.989 105.641 376.989 105.641L373.427 99.5204" fill="#6B1AD3"/>
</g>
<path fill-rule="evenodd" clip-rule="evenodd" d="M355.141 79.0099L379.118 102.026C379.444 102.339 379.876 102.519 380.328 102.53C383.548 102.606 396.793 102.542 400.828 102.52C401.022 102.519 401.196 102.4 401.268 102.22C401.34 102.039 401.296 101.833 401.156 101.699C397.217 97.8928 380.683 81.9187 377.445 78.8466C377.087 78.5071 376.613 78.3181 376.12 78.3186H355.419C355.255 78.3188 355.108 78.4185 355.047 78.5705C354.985 78.7226 355.023 78.8964 355.141 79.0099V79.0099Z" stroke="black" stroke-width="1.90137" stroke-linecap="round" stroke-linejoin="round"/>
<path d="M371.679 79.6558H360.27C360.157 79.6558 360.048 79.6128 359.965 79.5356L358.444 78.1111C358.31 77.9861 358.267 77.7923 358.334 77.6221C358.401 77.452 358.565 77.3401 358.748 77.3398H370.157C370.27 77.3398 370.379 77.3828 370.461 77.46L371.983 78.8845C372.116 79.0095 372.16 79.2034 372.093 79.3735C372.026 79.5436 371.861 79.6555 371.679 79.6558Z" fill="#F9C1BB" stroke="black" stroke-width="1.90137" stroke-linecap="round" stroke-linejoin="round"/>
<path d="M368.411 92.1232C368.411 92.1232 367.448 93.7867 370.154 95.9604C370.154 95.9604 370.374 97.4411 372.168 98.1657C372.168 98.1657 372.514 99.2998 373.426 99.5203C374.339 99.7409 373.772 99.5203 373.772 99.5203C377.674 99.5833 379.216 99.9299 379.436 98.9218C379.436 98.9218 380.318 98.1342 379.436 97.2521C379.436 97.2521 378.618 95.7714 376.982 95.8974C376.982 95.8974 377.696 94.4601 370.196 93.4618L368.411 92.1232Z" fill="#FACCC4" stroke="black" stroke-width="1.90137" stroke-linecap="round" stroke-linejoin="round"/>
<path d="M424.307 78.4063L425.452 98.7097L406.587 94.9719C406.587 94.9719 405.881 104.933 408.524 108.146L435.57 114.841C440.243 116.274 441.97 113.62 442.967 110.62C443.518 108.927 443.572 107.112 443.122 105.391C443.122 105.391 439.427 73.3225 434.824 67.8991C433.807 66.7009 432.695 65.8772 431.586 65.4688" fill="white"/>
<mask id="mask29_208_4744" style="mask-type:alpha" maskUnits="userSpaceOnUse" x="406" y="65" width="38" height="51">
<path fill-rule="evenodd" clip-rule="evenodd" d="M424.307 78.4063L425.452 98.7097L406.587 94.9719C406.587 94.9719 405.881 104.933 408.524 108.146L435.57 114.841C440.243 116.274 441.97 113.62 442.967 110.62C443.518 108.927 443.572 107.112 443.122 105.391C443.122 105.391 439.427 73.3225 434.824 67.8991C433.807 66.7009 432.695 65.8772 431.586 65.4688" fill="white"/>
</mask>
<g mask="url(#mask29_208_4744)">
<path d="M411.187 93.4027C409.891 96.9418 413.84 112 413.84 112L411.187 93.4027Z" fill="white"/>
<path d="M411.187 93.4027C409.891 96.9418 413.84 112 413.84 112" stroke="black" stroke-width="1.90137" stroke-linecap="round" stroke-linejoin="round"/>
</g>
<path d="M424.307 78.4063L425.452 98.7097L406.587 94.9719C406.587 94.9719 405.881 104.933 408.524 108.146L435.57 114.841C440.243 116.274 441.97 113.62 442.967 110.62C443.518 108.927 443.572 107.112 443.122 105.391C443.122 105.391 439.427 73.3225 434.824 67.8991C433.807 66.7009 432.695 65.8772 431.586 65.4688" stroke="black" stroke-width="1.90137" stroke-linecap="round" stroke-linejoin="round"/>
<path d="M415.283 114.216C415.064 114.382 414.859 114.567 414.672 114.769C411.406 118.268 412.437 127.131 413.118 132.997L413.264 134.264L414.27 134.165L414.124 132.895C413.504 127.561 412.466 118.635 415.415 115.476C416.213 114.618 417.247 114.241 418.576 114.32L418.618 113.3C417.309 113.222 416.191 113.53 415.283 114.216Z" fill="white"/>
<mask id="mask30_208_4744" style="mask-type:alpha" maskUnits="userSpaceOnUse" x="412" y="113" width="7" height="22">
<path fill-rule="evenodd" clip-rule="evenodd" d="M415.283 114.216C415.064 114.382 414.859 114.567 414.672 114.769C411.406 118.268 412.437 127.131 413.118 132.997L413.264 134.264L414.27 134.165L414.124 132.895C413.504 127.561 412.466 118.635 415.415 115.476C416.213 114.618 417.247 114.241 418.576 114.32L418.618 113.3C417.309 113.222 416.191 113.53 415.283 114.216Z" fill="white"/>
</mask>
<g mask="url(#mask30_208_4744)">
<path d="M414.53 133.275C413.118 132.997 413.196 132.777 412.816 132.127C412.437 131.477 411.818 133.323 411.865 133.391C411.912 133.46 413.527 134.78 413.541 134.668C413.556 134.555 414.916 133.887 414.916 133.887" fill="url(#paint4_linear_208_4744)"/>
</g>
<path fill-rule="evenodd" clip-rule="evenodd" d="M415.283 114.216C415.064 114.382 414.859 114.567 414.672 114.769C411.406 118.268 412.437 127.131 413.118 132.997L413.264 134.263L414.27 134.165L414.124 132.895C413.504 127.561 412.466 118.635 415.415 115.476C416.213 114.618 417.247 114.241 418.576 114.32L418.618 113.3C417.309 113.222 416.191 113.53 415.283 114.216Z" stroke="black" stroke-width="1.90137" stroke-linecap="round" stroke-linejoin="round"/>
<path d="M420.584 112.393L418.591 112.537C418.355 112.555 418.137 112.667 417.984 112.848C417.832 113.028 417.76 113.263 417.782 113.498L417.848 114.244C417.89 114.738 418.319 115.107 418.814 115.076L420.807 114.932C421.043 114.914 421.261 114.802 421.413 114.621C421.565 114.44 421.638 114.206 421.615 113.971L421.55 113.225C421.508 112.731 421.079 112.361 420.584 112.393Z" fill="#485065" stroke="black" stroke-width="1.90137" stroke-linecap="round" stroke-linejoin="round"/>
<path d="M424.282 143.549L424.469 144.466C425.229 148.218 426.016 152.096 428.895 153.643C430.892 154.717 433.091 154.824 436.713 153.298L435.938 151.91C432.775 153.24 431.16 153.093 429.607 152.258C427.392 151.067 426.713 147.72 425.995 144.177L425.806 143.253L424.282 143.549Z" fill="#1A80FD" stroke="black" stroke-width="1.90137" stroke-linecap="round" stroke-linejoin="round"/>
<path d="M410.056 117.178C410.326 117.122 410.6 117.089 410.876 117.08C415.673 116.917 421.731 123.496 425.741 127.85L426.607 128.789L425.873 129.481L425.004 128.539C421.359 124.581 415.258 117.954 410.927 118.102C409.752 118.14 408.788 118.67 407.978 119.721L407.176 119.085C407.974 118.05 408.94 117.411 410.056 117.178Z" fill="white" stroke="black" stroke-width="1.90137" stroke-linecap="round" stroke-linejoin="round"/>
<path d="M405.199 119.968L406.614 118.564C406.784 118.399 407.012 118.308 407.249 118.312C407.485 118.316 407.71 118.415 407.874 118.586L408.397 119.124C408.745 119.476 408.745 120.043 408.397 120.395L406.982 121.799C406.813 121.964 406.584 122.055 406.348 122.051C406.111 122.047 405.886 121.948 405.723 121.777L405.199 121.239C404.852 120.887 404.852 120.321 405.199 119.968Z" fill="#485065" stroke="black" stroke-width="1.90137" stroke-linecap="round" stroke-linejoin="round"/>
<path d="M412.835 133.676C413.901 142.56 418.737 144.541 420.767 144.979C424.237 145.711 427.781 144.113 429.53 141.028C430.503 139.29 432.172 134.592 426.688 128.495L425.543 129.541C428.918 133.293 429.876 137.191 428.171 140.236C426.754 142.737 423.881 144.034 421.068 143.443C417.483 142.667 415.045 139.048 414.38 133.513L412.835 133.676Z" fill="#1A80FD" stroke="black" stroke-width="1.90137" stroke-linecap="round" stroke-linejoin="round"/>
<path d="M438.855 155.702L416.038 157.741L412.807 138.574H434.28L438.855 155.702Z" fill="white" stroke="black" stroke-width="1.90137" stroke-linecap="round" stroke-linejoin="round"/>
<path d="M436.505 140.711H411.302L410.215 134.787L433.988 134.266L436.505 140.711Z" fill="white" stroke="black" stroke-width="1.90137" stroke-linecap="round" stroke-linejoin="round"/>
<path d="M422.189 94.6892L412.217 95.526C411.947 95.5438 411.681 95.4529 411.478 95.2737C411.276 95.0944 411.153 94.8417 411.137 94.5715L410.679 88.663C410.625 88.1004 411.035 87.5997 411.597 87.5408L421.569 86.704C421.839 86.6862 422.105 86.7771 422.307 86.9563C422.51 87.1356 422.633 87.3883 422.648 87.6585L423.107 93.567C423.161 94.1296 422.751 94.6303 422.189 94.6892Z" fill="#1A80FD"/>
<path fill-rule="evenodd" clip-rule="evenodd" d="M422.189 94.6892L412.217 95.526C411.947 95.5438 411.681 95.4529 411.478 95.2737C411.276 95.0944 411.153 94.8417 411.137 94.5715L410.679 88.663C410.625 88.1004 411.035 87.5997 411.597 87.5408L421.569 86.704C421.839 86.6862 422.105 86.7771 422.307 86.9563C422.51 87.1356 422.633 87.3883 422.648 87.6585L423.107 93.567C423.161 94.1296 422.751 94.6303 422.189 94.6892Z" stroke="black" stroke-width="1.90137" stroke-linecap="round" stroke-linejoin="round"/>
<ellipse cx="413.983" cy="91.6084" rx="1.72604" ry="1.7942" fill="#1D62FC"/>
<path d="M421.505 89.7186L416.803 90.1132L416.77 89.6764L421.471 89.2819L421.505 89.7186Z" fill="#1D62FC"/>
<path d="M421.621 91.2087L416.92 91.6033L416.886 91.1665L421.587 90.772L421.621 91.2087Z" fill="#1D62FC"/>
<path d="M420.471 92.8051L417.036 93.0935L417.002 92.6567L420.437 92.3685L420.471 92.8051Z" fill="#1D62FC"/>
<path d="M420.001 86.4306L418.008 86.598L417.935 85.6591C417.912 85.2649 417.733 84.8961 417.438 84.6346C417.142 84.3731 416.754 84.2405 416.36 84.2662C415.54 84.3523 414.942 85.0829 415.02 85.9038L415.093 86.8426L413.1 87.0098L413.222 88.5902L420.124 88.0109L420.001 86.4306Z" fill="#FDD504" stroke="black" stroke-width="1.90137" stroke-linecap="round" stroke-linejoin="round"/>
<path d="M402.045 44.2881C402.909 45.8004 405.913 45.9489 405.913 45.9489C405.913 45.9489 407.91 47.4614 411.689 46.9176C412.688 47.0783 411.057 52.6897 412.611 52.931C402.959 61.9363 399.258 52.1239 402.045 44.2881Z" fill="white" stroke="black" stroke-width="1.90137" stroke-linecap="round" stroke-linejoin="round"/>
<ellipse cx="405.065" cy="113.734" rx="1.73234" ry="1.73435" fill="white" stroke="black" stroke-width="1.90137" stroke-linecap="round" stroke-linejoin="round"/>
<path d="M438.479 16.1176C439.792 16.4795 440.754 17.6052 440.905 18.9597" stroke="black" stroke-width="1.90137" stroke-linecap="round" stroke-linejoin="round"/>
<path d="M412.888 36.4519C412.746 37.2438 413.015 38.0539 413.603 38.6034" stroke="black" stroke-width="1.90137" stroke-linecap="round" stroke-linejoin="round"/>
<path d="M416.292 237.568L419.856 239.948C416.286 240.846 412.616 241.283 408.935 241.248" stroke="black" stroke-width="1.90137" stroke-linecap="round" stroke-linejoin="round"/>
<path d="M425.576 98.4631C427.28 98.9781 428.838 99.891 430.119 101.127" stroke="black" stroke-width="1.90137" stroke-linecap="round" stroke-linejoin="round"/>
<path d="M441.345 174.433C439.079 177.347 435.866 179.377 432.261 180.173" stroke="black" stroke-width="1.90137" stroke-linecap="round" stroke-linejoin="round"/>
<path d="M398.2 168.239C398.565 169.398 399.507 170.283 400.686 170.574" stroke="black" stroke-width="1.90137" stroke-linecap="round" stroke-linejoin="round"/>
<path d="M247.97 332.76C219.298 314.924 178.437 283.971 171.325 286.803C155.903 292.943 236.52 348.286 236.52 348.286L247.97 332.76Z" fill="#FACCC4" stroke="black" stroke-width="1.90137" stroke-linecap="round" stroke-linejoin="round"/>
<path d="M291.728 358.027C278.687 333.757 227.275 288.016 222.153 288.453C217.031 288.891 221.048 294.756 226.867 300.681C232.686 306.605 267.034 359.747 267.034 359.747L291.728 358.027Z" fill="#FACCC4" stroke="black" stroke-width="1.90137" stroke-linecap="round" stroke-linejoin="round"/>
<path d="M192.148 309.236C174.429 299.605 141.178 292.146 137.546 292.951C133.915 293.756 129.984 296.517 129.984 296.517C129.984 296.517 224.61 342.646 247.206 360.796C282.394 389.061 302.153 360.887 302.153 360.887L192.148 309.236Z" fill="#FACCC4" stroke="black" stroke-width="1.90137" stroke-linecap="round" stroke-linejoin="round"/>
<path d="M337.999 289.366C303.059 282.9 309.035 352.451 290.263 350.635C271.492 348.818 194.537 287.557 190.135 287.414C185.732 287.271 187.036 296.57 189.721 300.28C192.406 303.989 301.866 413.396 310.644 426.963C319.422 440.53 355.404 417.952 355.404 417.952C355.404 417.952 368.781 378.611 336.223 344.55C319.284 326.829 337.999 289.366 337.999 289.366Z" fill="#FACCC4"/>
<mask id="mask31_208_4744" style="mask-type:alpha" maskUnits="userSpaceOnUse" x="187" y="287" width="172" height="145">
<path fill-rule="evenodd" clip-rule="evenodd" d="M337.999 289.366C303.059 282.9 309.035 352.451 290.263 350.635C271.492 348.818 194.537 287.557 190.135 287.414C185.732 287.271 187.036 296.57 189.721 300.28C192.406 303.989 301.866 413.396 310.644 426.963C319.422 440.53 355.404 417.952 355.404 417.952C355.404 417.952 368.781 378.611 336.223 344.55C319.284 326.829 337.999 289.366 337.999 289.366Z" fill="white"/>
</mask>
<g mask="url(#mask31_208_4744)">
<path d="M337.034 313.364C323.077 312.911 322.578 295.056 331.964 290.847C341.35 286.638 340.753 309.862 340.753 309.862L337.034 313.364Z" fill="white" stroke="black" stroke-width="1.90137" stroke-linecap="round" stroke-linejoin="round"/>
<path d="M182.681 287.172C198.027 295.82 206.76 309.235 203.898 318.801C201.037 328.368 183.609 309.69 183.609 309.69" fill="white"/>
<path d="M182.681 287.172C198.027 295.82 206.76 309.235 203.898 318.801C201.037 328.368 183.609 309.69 183.609 309.69" stroke="black" stroke-width="1.90137" stroke-linecap="round" stroke-linejoin="round"/>
<path d="M248.898 381.277C290.804 409.032 364.346 414.107 364.346 414.107L263.081 455.505L241.161 380.631" fill="#ED707B"/>
</g>
<path fill-rule="evenodd" clip-rule="evenodd" d="M337.999 289.366C303.059 282.9 309.035 352.451 290.263 350.635C271.492 348.818 194.537 287.557 190.135 287.414C185.732 287.271 187.036 296.57 189.721 300.28C192.406 303.989 301.866 413.396 310.644 426.963C319.422 440.53 355.404 417.952 355.404 417.952C355.404 417.952 368.781 378.611 336.223 344.55C319.284 326.829 337.999 289.366 337.999 289.366Z" stroke="black" stroke-width="1.90137" stroke-linecap="round" stroke-linejoin="round"/>
<rect y="248.021" width="503.536" height="48.959" fill="#1A80FD"/>
<mask id="mask32_208_4744" style="mask-type:alpha" maskUnits="userSpaceOnUse" x="0" y="248" width="504" height="49">
<rect y="248.021" width="503.536" height="48.959" fill="white"/>
</mask>
<g mask="url(#mask32_208_4744)">
<path d="M-19.1768 296.98C50.4914 248.021 458.324 317.113 511.554 279.495C564.784 241.878 526.427 335.158 526.427 335.158L169.364 373.382L-11.3489 333.137" fill="#1D62FC"/>
</g>
<rect y="248.021" width="503.536" height="48.959" stroke="black" stroke-width="1.90137" stroke-linecap="round" stroke-linejoin="round"/>
<rect x="11.1895" y="257.719" width="376.137" height="29.5642" fill="#1A80FD" stroke="black" stroke-width="1.90137" stroke-linecap="round" stroke-linejoin="round"/>
<rect x="429.85" y="257.719" width="51.308" height="29.5642" fill="#1A80FD" stroke="black" stroke-width="1.90137" stroke-linecap="round" stroke-linejoin="round"/>
<path d="M286.521 417.245L364.346 414.107L395.852 465.018L307.404 465.831L286.521 417.245Z" fill="#1B80FD"/>
<mask id="mask33_208_4744" style="mask-type:alpha" maskUnits="userSpaceOnUse" x="286" y="414" width="110" height="52">
<path fill-rule="evenodd" clip-rule="evenodd" d="M286.521 417.245L364.346 414.107L395.852 465.018L307.404 465.831L286.521 417.245Z" fill="white"/>
</mask>
<g mask="url(#mask33_208_4744)">
<path d="M287.302 406.695C295.728 409.286 303.396 414.627 308.619 421.786C314.409 429.723 317.205 439.537 316.6 449.349C316.306 454.115 315.465 459.779 311.637 463.04C310.537 463.976 310.677 465.865 311.637 466.828C312.725 467.922 314.306 467.767 315.408 466.828C319.549 463.301 320.946 457.717 321.62 452.531C322.325 446.99 322.048 441.368 320.803 435.923C318.426 425.514 312.552 416.235 304.16 409.634C299.555 406.007 294.321 403.259 288.72 401.528C285.43 400.517 284.024 405.687 287.302 406.695Z" fill="white" stroke="black" stroke-width="1.90137" stroke-linecap="round" stroke-linejoin="round"/>
<path d="M339.066 407.404C349.514 420.731 354.545 437.363 358.263 453.655C359.345 458.399 360.321 463.166 361.287 467.935C361.575 469.353 363.247 470.171 364.567 469.806C366.036 469.401 366.718 467.933 366.43 466.511C362.949 449.331 359.289 431.833 351.041 416.211C348.688 411.776 345.943 407.56 342.837 403.615C341.945 402.478 339.999 402.678 339.066 403.615C337.947 404.739 338.171 406.264 339.066 407.404Z" fill="white" stroke="black" stroke-width="1.90137" stroke-linecap="round" stroke-linejoin="round"/>
</g>
<path fill-rule="evenodd" clip-rule="evenodd" d="M286.521 417.245L364.346 414.107L395.852 465.018L307.404 465.831L286.521 417.245V417.245Z" stroke="black" stroke-width="1.90137" stroke-linecap="round" stroke-linejoin="round"/>
<path d="M32.678 269.462L29.5469 273.642" stroke="black" stroke-width="1.90137" stroke-linecap="round" stroke-linejoin="round"/>
<path d="M339.721 364.599C338.237 370.386 334.851 375.507 330.107 379.141" stroke="black" stroke-width="1.90137" stroke-linecap="round" stroke-linejoin="round"/>
<defs>
<linearGradient id="paint0_linear_208_4744" x1="392.373" y1="65.1369" x2="394.066" y2="116.605" gradientUnits="userSpaceOnUse">
<stop offset="0.1011" stop-color="#FFA449"/>
<stop offset="0.8855" stop-color="#FF6E3A"/>
</linearGradient>
<linearGradient id="paint1_linear_208_4744" x1="412.809" y1="133.333" x2="413.711" y2="131.447" gradientUnits="userSpaceOnUse">
<stop offset="0.1011" stop-color="#FEC456"/>
<stop offset="1" stop-color="#F54345"/>
</linearGradient>
<radialGradient id="paint2_radial_208_4744" cx="0" cy="0" r="1" gradientUnits="userSpaceOnUse" gradientTransform="translate(391.783 97.0152) rotate(45.0335) scale(3.72952 3.72952)">
<stop offset="0.0035" stop-color="#FFEF89"/>
<stop offset="0.0661" stop-color="#FCD29B"/>
<stop offset="1" stop-color="#F95C51"/>
</radialGradient>
<radialGradient id="paint3_radial_208_4744" cx="0" cy="0" r="1" gradientUnits="userSpaceOnUse" gradientTransform="translate(394.687 94.3009) rotate(45.0335) scale(4.7321 4.73209)">
<stop offset="0.0035" stop-color="#FFEF89"/>
<stop offset="0.0383" stop-color="#FCF89B"/>
<stop offset="0.9976" stop-color="#F9C951"/>
</radialGradient>
<linearGradient id="paint4_linear_208_4744" x1="410.949" y1="130.035" x2="410.776" y2="134.582" gradientUnits="userSpaceOnUse">
<stop offset="0.1023" stop-color="#DCDCF8"/>
<stop offset="0.8855" stop-color="#F5F6FE"/>
</linearGradient>
</defs>
</svg>
