<svg width="24" height="1179" viewBox="0 0 24 1179" fill="none" xmlns="http://www.w3.org/2000/svg">
<path d="M0 0L12.0071 24L24 0H0Z" fill="url(#paint0_linear_371_6511)"/>
<path d="M0 33L12.0071 57L24 33H0Z" fill="url(#paint1_linear_371_6511)"/>
<path d="M0 66L12.0071 90L24 66H0Z" fill="url(#paint2_linear_371_6511)"/>
<path d="M0 99L12.0071 123L24 99H0Z" fill="url(#paint3_linear_371_6511)"/>
<path d="M0 132L12.0071 156L24 132H0Z" fill="url(#paint4_linear_371_6511)"/>
<path d="M0 165L12.0071 189L24 165H0Z" fill="url(#paint5_linear_371_6511)"/>
<path d="M0 198L12.0071 222L24 198H0Z" fill="url(#paint6_linear_371_6511)"/>
<path d="M0 231L12.0071 255L24 231H0Z" fill="url(#paint7_linear_371_6511)"/>
<path d="M0 264L12.0071 288L24 264H0Z" fill="url(#paint8_linear_371_6511)"/>
<path d="M0 297L12.0071 321L24 297H0Z" fill="#383838"/>
<path d="M0 330L12.0071 354L24 330H0Z" fill="#383838"/>
<path d="M0 363L12.0071 387L24 363H0Z" fill="#383838"/>
<path d="M0 396L12.0071 420L24 396H0Z" fill="#383838"/>
<path d="M0 429L12.0071 453L24 429H0Z" fill="#383838"/>
<path d="M0 462L12.0071 486L24 462H0Z" fill="#383838"/>
<path d="M0 495L12.0071 519L24 495H0Z" fill="#383838"/>
<path d="M0 528L12.0071 552L24 528H0Z" fill="#383838"/>
<path d="M0 561L12.0071 585L24 561H0Z" fill="#383838"/>
<path d="M0 594L12.0071 618L24 594H0Z" fill="url(#paint9_linear_371_6511)"/>
<path d="M0 627L12.0071 651L24 627H0Z" fill="url(#paint10_linear_371_6511)"/>
<path d="M0 660L12.0071 684L24 660H0Z" fill="url(#paint11_linear_371_6511)"/>
<path d="M0 693L12.0071 717L24 693H0Z" fill="url(#paint12_linear_371_6511)"/>
<path d="M0 726L12.0071 750L24 726H0Z" fill="url(#paint13_linear_371_6511)"/>
<path d="M0 759L12.0071 783L24 759H0Z" fill="url(#paint14_linear_371_6511)"/>
<path d="M0 792L12.0071 816L24 792H0Z" fill="url(#paint15_linear_371_6511)"/>
<path d="M0 825L12.0071 849L24 825H0Z" fill="url(#paint16_linear_371_6511)"/>
<path d="M0 858L12.0071 882L24 858H0Z" fill="url(#paint17_linear_371_6511)"/>
<path d="M0 891L12.0071 915L24 891H0Z" fill="#383838"/>
<path d="M0 924L12.0071 948L24 924H0Z" fill="#383838"/>
<path d="M0 957L12.0071 981L24 957H0Z" fill="#383838"/>
<path d="M0 990L12.0071 1014L24 990H0Z" fill="#383838"/>
<path d="M0 1023L12.0071 1047L24 1023H0Z" fill="#383838"/>
<path d="M0 1056L12.0071 1080L24 1056H0Z" fill="#383838"/>
<path d="M0 1089L12.0071 1113L24 1089H0Z" fill="#383838"/>
<path d="M0 1122L12.0071 1146L24 1122H0Z" fill="#383838"/>
<path d="M0 1155L12.0071 1179L24 1155H0Z" fill="#383838"/>
<defs>
<linearGradient id="paint0_linear_371_6511" x1="24" y1="0" x2="-3.69206" y2="18.4621" gradientUnits="userSpaceOnUse">
<stop stop-color="#FFA44C"/>
<stop offset="1" stop-color="#FD3C83"/>
</linearGradient>
<linearGradient id="paint1_linear_371_6511" x1="24" y1="33" x2="-3.69206" y2="51.4621" gradientUnits="userSpaceOnUse">
<stop stop-color="#FFA44C"/>
<stop offset="1" stop-color="#FD3C83"/>
</linearGradient>
<linearGradient id="paint2_linear_371_6511" x1="24" y1="66" x2="-3.69206" y2="84.4621" gradientUnits="userSpaceOnUse">
<stop stop-color="#FFA44C"/>
<stop offset="1" stop-color="#FD3C83"/>
</linearGradient>
<linearGradient id="paint3_linear_371_6511" x1="24" y1="99" x2="-3.69206" y2="117.462" gradientUnits="userSpaceOnUse">
<stop stop-color="#FFA44C"/>
<stop offset="1" stop-color="#FD3C83"/>
</linearGradient>
<linearGradient id="paint4_linear_371_6511" x1="24" y1="132" x2="-3.69206" y2="150.462" gradientUnits="userSpaceOnUse">
<stop stop-color="#FFA44C"/>
<stop offset="1" stop-color="#FD3C83"/>
</linearGradient>
<linearGradient id="paint5_linear_371_6511" x1="24" y1="165" x2="-3.69206" y2="183.462" gradientUnits="userSpaceOnUse">
<stop stop-color="#FFA44C"/>
<stop offset="1" stop-color="#FD3C83"/>
</linearGradient>
<linearGradient id="paint6_linear_371_6511" x1="24" y1="198" x2="-3.69206" y2="216.462" gradientUnits="userSpaceOnUse">
<stop stop-color="#FFA44C"/>
<stop offset="1" stop-color="#FD3C83"/>
</linearGradient>
<linearGradient id="paint7_linear_371_6511" x1="24" y1="231" x2="-3.69206" y2="249.462" gradientUnits="userSpaceOnUse">
<stop stop-color="#FFA44C"/>
<stop offset="1" stop-color="#FD3C83"/>
</linearGradient>
<linearGradient id="paint8_linear_371_6511" x1="24" y1="264" x2="-3.69206" y2="282.462" gradientUnits="userSpaceOnUse">
<stop stop-color="#FFA44C"/>
<stop offset="1" stop-color="#FD3C83"/>
</linearGradient>
<linearGradient id="paint9_linear_371_6511" x1="24" y1="594" x2="-3.69206" y2="612.462" gradientUnits="userSpaceOnUse">
<stop stop-color="#FFA44C"/>
<stop offset="1" stop-color="#FD3C83"/>
</linearGradient>
<linearGradient id="paint10_linear_371_6511" x1="24" y1="627" x2="-3.69206" y2="645.462" gradientUnits="userSpaceOnUse">
<stop stop-color="#FFA44C"/>
<stop offset="1" stop-color="#FD3C83"/>
</linearGradient>
<linearGradient id="paint11_linear_371_6511" x1="24" y1="660" x2="-3.69206" y2="678.462" gradientUnits="userSpaceOnUse">
<stop stop-color="#FFA44C"/>
<stop offset="1" stop-color="#FD3C83"/>
</linearGradient>
<linearGradient id="paint12_linear_371_6511" x1="24" y1="693" x2="-3.69206" y2="711.462" gradientUnits="userSpaceOnUse">
<stop stop-color="#FFA44C"/>
<stop offset="1" stop-color="#FD3C83"/>
</linearGradient>
<linearGradient id="paint13_linear_371_6511" x1="24" y1="726" x2="-3.69206" y2="744.462" gradientUnits="userSpaceOnUse">
<stop stop-color="#FFA44C"/>
<stop offset="1" stop-color="#FD3C83"/>
</linearGradient>
<linearGradient id="paint14_linear_371_6511" x1="24" y1="759" x2="-3.69206" y2="777.462" gradientUnits="userSpaceOnUse">
<stop stop-color="#FFA44C"/>
<stop offset="1" stop-color="#FD3C83"/>
</linearGradient>
<linearGradient id="paint15_linear_371_6511" x1="24" y1="792" x2="-3.69206" y2="810.462" gradientUnits="userSpaceOnUse">
<stop stop-color="#FFA44C"/>
<stop offset="1" stop-color="#FD3C83"/>
</linearGradient>
<linearGradient id="paint16_linear_371_6511" x1="24" y1="825" x2="-3.69206" y2="843.462" gradientUnits="userSpaceOnUse">
<stop stop-color="#FFA44C"/>
<stop offset="1" stop-color="#FD3C83"/>
</linearGradient>
<linearGradient id="paint17_linear_371_6511" x1="24" y1="858" x2="-3.69206" y2="876.462" gradientUnits="userSpaceOnUse">
<stop stop-color="#FFA44C"/>
<stop offset="1" stop-color="#FD3C83"/>
</linearGradient>
</defs>
</svg>
