<svg width="300" height="329" viewBox="0 0 300 329" fill="none" xmlns="http://www.w3.org/2000/svg">
<path d="M275.281 272.788C277.144 272.273 278.236 270.345 277.721 268.482L205.654 7.99701C205.139 6.134 203.211 5.04156 201.348 5.55698L3.98854 60.1577C2.12551 60.6732 1.03307 62.6013 1.5485 64.4643L73.6154 324.948C74.1309 326.811 76.0589 327.903 77.9219 327.388L275.281 272.788Z" fill="white" stroke="#898989"/>
<path d="M274.059 263.87L269.59 270.475C266.268 275.379 258.816 274.581 256.613 269.08L253.648 261.675C250.789 254.527 249.724 246.789 250.545 239.137L258.006 169.777L289.342 173.148L281.884 242.508C281.06 250.159 278.374 257.494 274.059 263.87Z" fill="#D4C6E8"/>
<path d="M261.232 170.126L253.773 239.482C253.01 246.583 254.008 253.84 256.662 260.468L259.627 267.875C260.207 269.322 261.48 270.286 263.027 270.451C264.578 270.619 266.027 269.949 266.902 268.655L271.374 262.049C275.376 256.138 277.892 249.257 278.658 242.156L286.116 172.8L261.232 170.126Z" fill="white"/>
<path d="M257.336 206.328L253.773 239.482C253.01 246.583 254.008 253.84 256.662 260.468L259.627 267.875C260.207 269.322 261.48 270.286 263.027 270.451C264.578 270.619 266.027 269.949 266.902 268.655L271.374 262.049C275.376 256.138 277.892 249.257 278.658 242.156L282.223 209.005L257.336 206.328Z" fill="url(#paint0_linear_383_10089)"/>
<path d="M294.756 148.821L257.89 144.854C254.664 144.508 251.771 146.841 251.425 150.064L250.032 163.017C249.686 166.238 252.019 169.133 255.24 169.482L292.108 173.446C295.331 173.792 298.227 171.46 298.573 168.236L299.966 155.286C300.312 152.062 297.981 149.167 294.756 148.821Z" fill="url(#paint1_linear_383_10089)"/>
<path d="M276.349 201.111L264.757 199.864C264.098 199.794 263.62 199.201 263.692 198.542C263.761 197.883 264.355 197.406 265.013 197.479L276.606 198.725C277.265 198.794 277.74 199.388 277.671 200.047C277.6 200.705 277.008 201.181 276.349 201.111Z" fill="#6F6FA3"/>
<path d="M273.24 206.551L266.639 205.843C265.98 205.769 265.505 205.18 265.574 204.521C265.645 203.861 266.237 203.385 266.895 203.454L273.497 204.166C274.155 204.238 274.633 204.829 274.559 205.488C274.49 206.144 273.896 206.622 273.24 206.551Z" fill="#6F6FA3"/>
<path d="M274.508 218.235L262.915 216.989C262.256 216.92 261.781 216.328 261.85 215.668C261.919 215.008 262.513 214.533 263.172 214.604L274.765 215.851C275.423 215.921 275.901 216.513 275.829 217.172C275.758 217.83 275.166 218.308 274.508 218.235Z" fill="#6F6FA3"/>
<path d="M271.396 223.677L264.797 222.967C264.138 222.896 263.66 222.304 263.732 221.645C263.803 220.987 264.395 220.509 265.053 220.58L271.655 221.29C272.311 221.362 272.789 221.953 272.717 222.61C272.648 223.271 272.057 223.746 271.396 223.677Z" fill="#6F6FA3"/>
<path d="M272.626 212.261L266.025 211.549C265.366 211.48 264.888 210.886 264.962 210.229C265.031 209.571 265.621 209.093 266.281 209.165L272.88 209.872C273.541 209.946 274.017 210.535 273.947 211.194C273.876 211.855 273.284 212.33 272.626 212.261Z" fill="#6F6FA3"/>
<path d="M272.666 235.362L261.071 234.116C260.413 234.044 259.939 233.453 260.008 232.795C260.08 232.136 260.672 231.658 261.33 231.727L272.923 232.975C273.581 233.047 274.059 233.639 273.985 234.297C273.916 234.958 273.325 235.434 272.666 235.362Z" fill="#6F6FA3"/>
<path d="M270.784 229.386L264.183 228.673C263.524 228.604 263.047 228.012 263.118 227.354C263.19 226.695 263.781 226.22 264.44 226.289L271.041 226.999C271.7 227.068 272.175 227.661 272.106 228.321C272.032 228.979 271.443 229.457 270.784 229.386Z" fill="#6F6FA3"/>
<path d="M269.556 240.802L262.955 240.091C262.297 240.021 261.819 239.431 261.893 238.77C261.962 238.112 262.551 237.637 263.212 237.705L269.811 238.417C270.472 238.487 270.947 239.078 270.878 239.736C270.806 240.396 270.215 240.871 269.556 240.802Z" fill="#6F6FA3"/>
<path d="M268.942 246.51L262.341 245.8C261.683 245.729 261.205 245.137 261.276 244.478C261.348 243.82 261.939 243.344 262.598 243.415L269.199 244.124C269.858 244.195 270.335 244.786 270.264 245.445C270.193 246.104 269.601 246.581 268.942 246.51Z" fill="#6F6FA3"/>
<path d="M258.466 169.828L255.702 169.531L258.352 144.906L261.116 145.205L258.466 169.828Z" fill="white" fill-opacity="0.44"/>
<path d="M250.49 165.986C250.999 167.151 251.871 168.129 252.988 168.759L255.535 145.082C254.311 145.459 253.247 146.232 252.501 147.261L250.49 165.986Z" fill="white" fill-opacity="0.44"/>
<path d="M269.525 171.017L266.761 170.717L269.411 146.094L272.175 146.391L269.525 171.017Z" fill="white" fill-opacity="0.44"/>
<path d="M263.998 170.422L261.232 170.127L263.879 145.499L266.645 145.796L263.998 170.422Z" fill="white" fill-opacity="0.44"/>
<path d="M280.589 172.205L277.821 171.91L280.471 147.283L283.234 147.582L280.589 172.205Z" fill="white" fill-opacity="0.44"/>
<path d="M275.057 171.613L272.293 171.314L274.939 146.691L277.704 146.986L275.057 171.613Z" fill="white" fill-opacity="0.44"/>
<path d="M291.648 173.397L288.882 173.101L291.53 148.473L294.296 148.77L291.648 173.397Z" fill="white" fill-opacity="0.44"/>
<path d="M286.116 172.801L283.353 172.504L286 147.878L288.766 148.178L286.116 172.801Z" fill="white" fill-opacity="0.44"/>
<path d="M294.463 173.218C295.687 172.84 296.751 172.07 297.495 171.039L299.508 152.316C299.002 151.151 298.124 150.171 297.01 149.541L294.463 173.218Z" fill="white" fill-opacity="0.44"/>
<path d="M129.144 59.1751L26.7775 87.4951L23.5205 75.7237L125.889 47.4037L129.144 59.1751Z" fill="#ADA3D6"/>
<path d="M188.907 74.7052L35.0194 117.281L32.4209 107.883L186.308 65.309L188.907 74.7052Z" fill="#ADA3D6"/>
<path d="M172.649 102.896L41.1073 139.288L38.5088 129.89L170.048 93.4974L172.649 102.896Z" fill="#ADA3D6"/>
<path d="M121.904 254.077L76.3522 266.682L73.7515 257.283L119.303 244.679L121.904 254.077Z" fill="#ADA3D6"/>
<path d="M126.822 271.848L81.2679 284.45L78.6672 275.054L124.221 262.45L126.822 271.848Z" fill="#ADA3D6"/>
<path d="M197.205 191.658L65.6635 228.051L63.0649 218.652L194.604 182.26L197.205 191.658Z" fill="#ADA3D6"/>
<path opacity="0.7" d="M226.826 153.626L58.2408 200.268L48.1213 163.69L216.705 117.046L226.826 153.626Z" stroke="url(#paint2_linear_383_10089)" stroke-width="1.26872" stroke-miterlimit="10"/>
<path opacity="0.7" d="M51.8494 177.168L220.435 130.527" stroke="url(#paint3_linear_383_10089)" stroke-width="1.26872" stroke-miterlimit="10"/>
<path opacity="0.7" d="M96.312 150.356L106.431 186.936" stroke="url(#paint4_linear_383_10089)" stroke-width="1.26872" stroke-miterlimit="10"/>
<path opacity="0.7" d="M72.2156 157.024L82.335 193.6" stroke="url(#paint5_linear_383_10089)" stroke-width="1.26872" stroke-miterlimit="10"/>
<path opacity="0.7" d="M144.5 137.026L154.62 173.602" stroke="url(#paint6_linear_383_10089)" stroke-width="1.26872" stroke-miterlimit="10"/>
<path opacity="0.7" d="M120.406 143.692L130.526 180.271" stroke="url(#paint7_linear_383_10089)" stroke-width="1.26872" stroke-miterlimit="10"/>
<path opacity="0.7" d="M192.689 123.694L202.81 160.271" stroke="url(#paint8_linear_383_10089)" stroke-width="1.26872" stroke-miterlimit="10"/>
<path opacity="0.7" d="M168.597 130.358L178.716 166.936" stroke="url(#paint9_linear_383_10089)" stroke-width="1.26872" stroke-miterlimit="10"/>
<path d="M239.265 66.2224L152.945 90.1045L136.424 30.3904L222.743 6.51052L239.265 66.2224Z" fill="url(#paint10_linear_383_10089)"/>
<path d="M207.86 28.0286L150.28 43.959L148.51 37.5632L206.09 21.6306L207.86 28.0286Z" fill="white"/>
<path d="M219.656 35.9717L181.951 46.4014L180.415 40.8561L218.12 30.4264L219.656 35.9717Z" fill="white"/>
<path d="M222.096 44.8007L184.393 55.2305L182.857 49.6874L220.564 39.2555L222.096 44.8007Z" fill="white"/>
<path d="M224.54 53.6267L186.835 64.0586L185.302 58.5156L223.007 48.0836L224.54 53.6267Z" fill="white"/>
<path d="M181.466 70.0462L159.203 76.2031L151.626 48.8229L173.892 42.6615L181.466 70.0462Z" fill="white"/>
<path d="M159.52 16.6077L158.363 12.4286C157.151 8.04645 159.721 3.51248 164.101 2.30029C168.483 1.0881 173.017 3.6576 174.229 8.03978L181.203 33.2456C181.94 35.9089 180.379 38.6637 177.716 39.4003C175.055 40.1348 172.3 38.5766 171.566 35.9156L164.826 11.558" stroke="#2F2F2F" stroke-width="2.53744" stroke-miterlimit="10"/>
<defs>
<linearGradient id="paint0_linear_383_10089" x1="282.223" y1="270.477" x2="238.299" y2="257.375" gradientUnits="userSpaceOnUse">
<stop stop-color="#FFA44C"/>
<stop offset="1" stop-color="#FD3C83"/>
</linearGradient>
<linearGradient id="paint1_linear_383_10089" x1="300" y1="173.48" x2="264.581" y2="132.283" gradientUnits="userSpaceOnUse">
<stop stop-color="#FFA44C"/>
<stop offset="1" stop-color="#FD3C83"/>
</linearGradient>
<linearGradient id="paint2_linear_383_10089" x1="226.826" y1="200.268" x2="129.157" y2="60.4422" gradientUnits="userSpaceOnUse">
<stop stop-color="#FFA44C"/>
<stop offset="1" stop-color="#FD3C83"/>
</linearGradient>
<linearGradient id="paint3_linear_383_10089" x1="220.435" y1="177.168" x2="179.157" y2="77.6971" gradientUnits="userSpaceOnUse">
<stop stop-color="#FFA44C"/>
<stop offset="1" stop-color="#FD3C83"/>
</linearGradient>
<linearGradient id="paint4_linear_383_10089" x1="106.431" y1="186.936" x2="90.1203" y2="183.927" gradientUnits="userSpaceOnUse">
<stop stop-color="#FFA44C"/>
<stop offset="1" stop-color="#FD3C83"/>
</linearGradient>
<linearGradient id="paint5_linear_383_10089" x1="82.335" y1="193.6" x2="66.024" y2="190.591" gradientUnits="userSpaceOnUse">
<stop stop-color="#FFA44C"/>
<stop offset="1" stop-color="#FD3C83"/>
</linearGradient>
<linearGradient id="paint6_linear_383_10089" x1="154.62" y1="173.602" x2="138.309" y2="170.593" gradientUnits="userSpaceOnUse">
<stop stop-color="#FFA44C"/>
<stop offset="1" stop-color="#FD3C83"/>
</linearGradient>
<linearGradient id="paint7_linear_383_10089" x1="130.526" y1="180.271" x2="114.215" y2="177.263" gradientUnits="userSpaceOnUse">
<stop stop-color="#FFA44C"/>
<stop offset="1" stop-color="#FD3C83"/>
</linearGradient>
<linearGradient id="paint8_linear_383_10089" x1="202.81" y1="160.271" x2="186.496" y2="157.262" gradientUnits="userSpaceOnUse">
<stop stop-color="#FFA44C"/>
<stop offset="1" stop-color="#FD3C83"/>
</linearGradient>
<linearGradient id="paint9_linear_383_10089" x1="178.716" y1="166.936" x2="162.405" y2="163.927" gradientUnits="userSpaceOnUse">
<stop stop-color="#FFA44C"/>
<stop offset="1" stop-color="#FD3C83"/>
</linearGradient>
<linearGradient id="paint10_linear_383_10089" x1="239.265" y1="90.1045" x2="136.795" y2="6.05805" gradientUnits="userSpaceOnUse">
<stop stop-color="#FFA44C"/>
<stop offset="1" stop-color="#FD3C83"/>
</linearGradient>
</defs>
</svg>
