<svg width="18" height="20" viewBox="0 0 18 20" fill="none" xmlns="http://www.w3.org/2000/svg">
<g clip-path="url(#clip0_147_3665)">
<path d="M11.4802 16.9282C11.3953 18.4771 10.1109 19.707 8.53895 19.707C6.96698 19.707 5.6826 18.4771 5.59768 16.9282H1.0118C0.468487 16.9282 0.0290527 16.4904 0.0290527 15.9484V14.9666C0.0290527 13.8843 0.909062 13.0051 1.99356 13.0051C1.99228 13.0051 1.99287 9.08179 1.99287 9.08179C1.99287 6.31842 3.72295 3.89563 6.24782 2.95509V2.86894C6.24782 1.6063 7.27505 0.582031 8.53895 0.582031C9.8042 0.582031 10.8301 1.60568 10.8301 2.86894V2.95515C13.3549 3.89581 15.085 6.319 15.085 9.08179V13.0045C16.1672 13.0051 17.0488 13.884 17.0488 14.9666V15.9484C17.0488 16.4882 16.608 16.9282 16.0661 16.9282H11.4802ZM10.1674 16.9282H6.91051C6.99262 17.7542 7.69036 18.3993 8.53895 18.3993C9.38754 18.3993 10.0853 17.7542 10.1674 16.9282ZM15.7396 15.6205V14.9666C15.7396 14.6068 15.4447 14.3128 15.0843 14.3128C14.3609 14.3128 13.7758 13.7286 13.7758 13.0045V9.08179C13.7758 6.73604 12.2165 4.69594 9.99403 4.05556L9.52086 3.91922V2.86894C9.52086 2.32819 9.08144 1.88972 8.53895 1.88972C7.99761 1.88972 7.55704 2.32902 7.55704 2.86894V3.91921L7.08384 4.05554C4.8613 4.69584 3.30209 6.73546 3.30209 9.08179V13.0045C3.30209 13.7266 2.71552 14.3128 1.99356 14.3128C1.6322 14.3128 1.33827 14.6065 1.33827 14.9666V15.6205H15.7396Z" fill="#2F444F"/>
</g>
<defs>
<clipPath id="clip0_147_3665">
<rect width="17.0198" height="19.2885" fill="white" transform="translate(0.0290527 0.418945)"/>
</clipPath>
</defs>
</svg>
